<svg id="_1" data-name="1" xmlns="http://www.w3.org/2000/svg" xmlns:xlink="http://www.w3.org/1999/xlink" viewBox="0 0 352.85 335.76"><defs><style>.cls-1{fill:url(#linear-gradient);}.cls-2{fill:#0065c1;}.cls-10,.cls-11,.cls-12,.cls-13,.cls-14,.cls-15,.cls-16,.cls-17,.cls-18,.cls-19,.cls-2,.cls-20,.cls-21,.cls-22,.cls-23,.cls-24,.cls-25,.cls-26,.cls-27,.cls-28,.cls-29,.cls-3,.cls-30,.cls-31,.cls-32,.cls-34,.cls-35,.cls-36,.cls-37,.cls-38,.cls-39,.cls-4,.cls-40,.cls-41,.cls-42,.cls-45,.cls-46,.cls-47,.cls-48,.cls-49,.cls-50,.cls-51,.cls-52,.cls-53,.cls-54,.cls-55,.cls-56,.cls-57,.cls-58,.cls-59,.cls-6,.cls-60,.cls-61,.cls-62,.cls-64,.cls-7,.cls-8,.cls-9{fill-rule:evenodd;}.cls-2,.cls-61{opacity:0.49;}.cls-3,.cls-43{fill:#333;}.cls-4,.cls-5{fill:#5d625c;}.cls-6{fill:#ccc;}.cls-7{fill:#706f6f;}.cls-8{fill:#3c3c3b;}.cls-9{fill:#b2b2b2;}.cls-10{fill:#f6f6f6;}.cls-11{fill:#878787;}.cls-12{fill:#1d1d1b;}.cls-13{fill:#3a1e0b;}.cls-14{fill:#2b2b2b;}.cls-15{fill:#c6c6c6;}.cls-16{fill:#643027;}.cls-17{fill:#572c26;}.cls-18{fill:#7c3731;}.cls-19{fill:#534b48;}.cls-20{fill:#05324f;}.cls-21{fill:#093c5c;}.cls-22{fill:#b1bec5;}.cls-23{fill:#8ba2af;}.cls-24{fill:#9d9d9c;}.cls-25{fill:#575756;}.cls-26{fill:#d39064;}.cls-27{fill:#f1b287;}.cls-28{fill:#a2b2bc;}.cls-29{fill:#f2b387;}.cls-30{fill:#09476e;}.cls-31{fill:#0084c4;}.cls-32{fill:#73919e;}.cls-33,.cls-61{fill:#fff;}.cls-34{fill:#602a25;}.cls-35{fill:url(#GradientFill_7);}.cls-37{fill:#999;}.cls-38{fill:url(#GradientFill_7-2);}.cls-39{fill:#ebc110;}.cls-40{fill:#1952c4;}.cls-41{fill:#f0b186;}.cls-42{fill:#87470f;}.cls-44,.cls-48{fill:#7f7f7f;}.cls-45{fill:#e5e5e5;}.cls-46{fill:url(#GradientFill_6);}.cls-47{fill:#666;}.cls-49{fill:#369;}.cls-50{fill:#898989;}.cls-51{fill:#ededed;}.cls-52{fill:url(#GradientFill_6-2);}.cls-53{fill:#444;}.cls-54{fill:#e30613;}.cls-55{fill:url(#GradientFill_6-3);}.cls-56{fill:#d2d2d2;}.cls-57{fill:#cdcdcd;}.cls-58{fill:#b0b0b0;}.cls-59{fill:#bcbcbc;}.cls-60{fill:url(#GradientFill_6-4);}.cls-62{fill:url(#linear-gradient-2);}.cls-63,.cls-64{fill:#7f7fd4;}</style><linearGradient id="linear-gradient" x1="399.13" y1="391.27" x2="57.29" y2="83.46" gradientTransform="translate(234.68 -91.85) rotate(45)" gradientUnits="userSpaceOnUse"><stop offset="0" stop-color="#005fd2"/><stop offset="1" stop-color="#5bfff8"/></linearGradient><linearGradient id="GradientFill_7" x1="395.61" y1="-96.91" x2="199.92" y2="440.72" gradientUnits="userSpaceOnUse"><stop offset="0" stop-color="#dadada"/><stop offset="0.66" stop-color="#dadada"/><stop offset="1" stop-color="#ededed"/></linearGradient><linearGradient id="GradientFill_7-2" x1="332.95" y1="-60.92" x2="137.25" y2="476.77" xlink:href="#GradientFill_7"/><linearGradient id="GradientFill_6" x1="167.52" y1="94.08" x2="151.82" y2="167.93" gradientUnits="userSpaceOnUse"><stop offset="0" stop-color="#c6c6c6"/><stop offset="1" stop-color="#fff"/></linearGradient><linearGradient id="GradientFill_6-2" x1="111.56" y1="265.13" x2="127.34" y2="210.08" xlink:href="#GradientFill_6"/><linearGradient id="GradientFill_6-3" x1="252.66" y1="-181.36" x2="153.17" y2="286.71" xlink:href="#GradientFill_6"/><linearGradient id="GradientFill_6-4" x1="383.05" y1="132.61" x2="358.12" y2="124.51" xlink:href="#GradientFill_6"/><linearGradient id="linear-gradient-2" x1="359.21" y1="53.34" x2="319.02" y2="152.82" gradientUnits="userSpaceOnUse"><stop offset="0.23" stop-color="#c6c6c6"/><stop offset="0.69" stop-color="#fff"/></linearGradient></defs><title>SISTEMA DE ALARME E CFTV</title><circle class="cls-1" cx="228.21" cy="237.37" r="161.94" transform="translate(-151.57 165.14) rotate(-45)"/><path class="cls-2" d="M312.4,321.61c39.14,2.58,66.72,22.49,61.6,44.47s-41,37.73-80.17,35.16-66.71-22.49-61.59-44.48S273.27,319,312.4,321.61Z" transform="translate(-50.56 -65.75)"/><path class="cls-3" d="M302.07,342.93c-2.15.62-3.44,5.24-.17,8.54,1.32,1.34,2.24,2,6.27,3,3,.73,4.29.83,6.23,2.19.28.19-.27,1.42.05,1.64a52.27,52.27,0,0,0,4.6,2.8c1.53.9,6.18.92,7.3-1.09.59-1.07,1.34-4.14-.14-6.18Z" transform="translate(-50.56 -65.75)"/><path class="cls-4" d="M327,355.65a4.69,4.69,0,0,0-.83-2.31L302.3,342.56c-3.18,1.59-2,6,.06,8.23a9.47,9.47,0,0,0,4.67,2.42c7.91,1.28,11.46,6,14.77,6.08s4.56-1,5-2.46A7.49,7.49,0,0,0,327,355.65Z" transform="translate(-50.56 -65.75)"/><path class="cls-3" d="M311.49,343.61c-3.95-.18-3.21-2.24-7-2.22a3.93,3.93,0,0,0-3.52,2.85c-.69,1.95.35,4.35,1.49,5.83a8.29,8.29,0,0,0,4.39,2.78c7.91,1.28,12.09,5.68,14.65,5.72,3.28,0,4.57-1,5-2.46.86-2.9-.65-6.05-.8-8.16-.26-3.79-.39-5.45.41-7.64-1.68-2.1-7.69-5.27-11-3.77C315.29,343.63,312.51,343.39,311.49,343.61Z" transform="translate(-50.56 -65.75)"/><path class="cls-5" d="M310.64,347.79h0a.44.44,0,0,1-.44-.44c0-1.47,0-3.31,1.68-4.22a.43.43,0,1,1,.42.76c-1.13.62-1.22,1.83-1.23,3.47A.43.43,0,0,1,310.64,347.79Z" transform="translate(-50.56 -65.75)"/><path class="cls-5" d="M309,347.4h-.05a.44.44,0,0,1-.38-.49c.18-1.46.39-3.28,2.14-4a.43.43,0,1,1,.33.8c-1.18.49-1.41,1.68-1.61,3.31A.42.42,0,0,1,309,347.4Z" transform="translate(-50.56 -65.75)"/><path class="cls-5" d="M312.36,347.36a.44.44,0,0,1-.43-.36c-.26-1.45-.59-3.25.87-4.46a.44.44,0,0,1,.61.06.43.43,0,0,1-.06.61c-1,.82-.86,2-.57,3.64a.42.42,0,0,1-.35.5Z" transform="translate(-50.56 -65.75)"/><path class="cls-5" d="M313.9,346.42a.43.43,0,0,1-.41-.28c-.51-1.39-1.14-3.11.1-4.54a.43.43,0,1,1,.65.57c-.83,1-.5,2.13.07,3.67a.44.44,0,0,1-.26.56A.39.39,0,0,1,313.9,346.42Z" transform="translate(-50.56 -65.75)"/><path class="cls-5" d="M315.28,344.92a.43.43,0,0,1-.38-.21c-.74-1.28-1.66-2.87-.69-4.49a.43.43,0,0,1,.59-.15.42.42,0,0,1,.15.59c-.65,1.11-.12,2.19.7,3.61a.42.42,0,0,1-.37.65Z" transform="translate(-50.56 -65.75)"/><path class="cls-5" d="M316.5,343.36a.41.41,0,0,1-.33-.15c-1-1.13-2.15-2.52-1.49-4.29a.44.44,0,1,1,.82.3c-.45,1.2.27,2.18,1.33,3.43a.44.44,0,0,1-.05.61A.42.42,0,0,1,316.5,343.36Z" transform="translate(-50.56 -65.75)"/><path class="cls-5" d="M317.2,341.51a.42.42,0,0,1-.28-.1c-1.12-1-2.51-2.16-2.13-4a.43.43,0,0,1,.52-.33.42.42,0,0,1,.33.51c-.25,1.25.6,2.11,1.85,3.18a.43.43,0,0,1,0,.61A.44.44,0,0,1,317.2,341.51Z" transform="translate(-50.56 -65.75)"/><path class="cls-3" d="M284.5,353c-2.15.62-3.44,5.24-.17,8.55,1.32,1.33,2.24,2,6.27,3,3,.72,4.29.82,6.23,2.18.28.2-.27,1.42.05,1.65a52,52,0,0,0,4.6,2.79c1.53.9,6.17.93,7.3-1.08.59-1.07,1.34-4.14-.14-6.19Z" transform="translate(-50.56 -65.75)"/><path class="cls-4" d="M309.47,365.74a4.69,4.69,0,0,0-.83-2.31l-23.91-10.78c-3.18,1.58-2,6,.06,8.22a9.49,9.49,0,0,0,4.67,2.43c7.91,1.27,11.45,6,14.77,6.07s4.56-1,5-2.46A8.69,8.69,0,0,0,309.47,365.74Z" transform="translate(-50.56 -65.75)"/><path class="cls-3" d="M293.92,353.7c-3.95-.18-3.21-2.25-7-2.23a4,4,0,0,0-3.52,2.85c-.69,2,.35,4.35,1.49,5.83a8.25,8.25,0,0,0,4.39,2.79c7.91,1.27,12.09,5.68,14.65,5.71,3.28,0,4.57-1,5-2.46.86-2.9-.65-6.05-.8-8.15-.26-3.8-.39-5.45.41-7.65-1.68-2.1-7.69-5.26-11-3.77C297.72,353.71,294.94,353.47,293.92,353.7Z" transform="translate(-50.56 -65.75)"/><path class="cls-5" d="M293.07,357.88h0a.44.44,0,0,1-.43-.44c0-1.48,0-3.31,1.68-4.22a.43.43,0,0,1,.59.17.44.44,0,0,1-.17.59c-1.13.62-1.22,1.82-1.23,3.46A.44.44,0,0,1,293.07,357.88Z" transform="translate(-50.56 -65.75)"/><path class="cls-5" d="M291.42,357.48h-.05A.43.43,0,0,1,291,357c.17-1.46.39-3.29,2.14-4a.45.45,0,0,1,.57.24.44.44,0,0,1-.24.57c-1.18.48-1.41,1.67-1.61,3.3A.42.42,0,0,1,291.42,357.48Z" transform="translate(-50.56 -65.75)"/><path class="cls-5" d="M294.79,357.44a.43.43,0,0,1-.43-.35c-.26-1.45-.59-3.26.87-4.46a.44.44,0,0,1,.61.06.43.43,0,0,1-.06.61c-1,.82-.86,2-.57,3.63a.43.43,0,0,1-.35.51Z" transform="translate(-50.56 -65.75)"/><path class="cls-5" d="M296.33,356.51a.44.44,0,0,1-.41-.28c-.51-1.39-1.14-3.11.1-4.55a.43.43,0,0,1,.65.57c-.83,1-.5,2.14.07,3.68a.43.43,0,0,1-.26.55Z" transform="translate(-50.56 -65.75)"/><path class="cls-5" d="M297.71,355a.44.44,0,0,1-.38-.22c-.74-1.27-1.66-2.86-.69-4.48a.43.43,0,0,1,.59-.16.44.44,0,0,1,.15.6c-.65,1.1-.12,2.19.7,3.61a.43.43,0,0,1-.16.59A.39.39,0,0,1,297.71,355Z" transform="translate(-50.56 -65.75)"/><path class="cls-5" d="M298.93,353.45a.39.39,0,0,1-.33-.16c-1-1.12-2.15-2.52-1.49-4.29a.44.44,0,0,1,.56-.25.43.43,0,0,1,.25.56c-.44,1.2.27,2.17,1.34,3.42a.44.44,0,0,1-.05.61A.43.43,0,0,1,298.93,353.45Z" transform="translate(-50.56 -65.75)"/><path class="cls-5" d="M299.63,351.6a.43.43,0,0,1-.28-.11c-1.12-1-2.51-2.16-2.13-4a.45.45,0,0,1,.52-.34.43.43,0,0,1,.33.51c-.25,1.26.6,2.11,1.84,3.19a.42.42,0,0,1,0,.61A.44.44,0,0,1,299.63,351.6Z" transform="translate(-50.56 -65.75)"/><polygon class="cls-6" points="310.92 271.92 292.6 282.22 292.6 283.96 310.92 273.65 310.92 271.92"/><polygon class="cls-6" points="301.42 266.73 301.44 287.75 302.95 288.6 302.93 267.57 301.42 266.73"/><path class="cls-7" d="M318.19,302.31c2.08,0,3.77-1.15,3.77-2.56s-1.69-2.57-3.77-2.57-3.77,1.15-3.77,2.57S316.12,302.31,318.19,302.31Z" transform="translate(-50.56 -65.75)"/><path class="cls-8" d="M318.19,301.22c2.08,0,3.77-1.15,3.77-2.56s-1.69-2.56-3.77-2.56-3.77,1.15-3.77,2.56S316.12,301.22,318.19,301.22Z" transform="translate(-50.56 -65.75)"/><path class="cls-9" d="M314.08,230.1h0c.28-3.44,8-3.43,8.21,0h0v66.82h0c-.25,3.43-7.93,3.44-8.21,0h0V230.1Z" transform="translate(-50.56 -65.75)"/><path class="cls-7" d="M321.15,229.36v69.36a5.26,5.26,0,0,1-2.5.76v-68.7A12.46,12.46,0,0,0,321.15,229.36Z" transform="translate(-50.56 -65.75)"/><path class="cls-10" d="M317.34,229.08v70.36a4.78,4.78,0,0,1-2.36-.91V230.82A11.62,11.62,0,0,0,317.34,229.08Z" transform="translate(-50.56 -65.75)"/><path class="cls-7" d="M355,323.1c2.07,0,3.77-1.15,3.77-2.57S357,318,355,318s-3.77,1.15-3.77,2.56S352.87,323.1,355,323.1Z" transform="translate(-50.56 -65.75)"/><path class="cls-8" d="M355,322c2.07,0,3.77-1.15,3.77-2.56s-1.7-2.56-3.77-2.56-3.77,1.15-3.77,2.56S352.87,322,355,322Z" transform="translate(-50.56 -65.75)"/><path class="cls-9" d="M350.84,250.89h0c.29-3.44,8-3.43,8.21,0h0V317.7h0c-.25,3.44-7.92,3.44-8.21,0h0V250.89Z" transform="translate(-50.56 -65.75)"/><path class="cls-7" d="M357.91,250.14v69.37a5.41,5.41,0,0,1-2.5.76v-68.7A12.28,12.28,0,0,0,357.91,250.14Z" transform="translate(-50.56 -65.75)"/><path class="cls-10" d="M354.09,249.87v70.36a4.84,4.84,0,0,1-2.35-.91V251.61A11.55,11.55,0,0,0,354.09,249.87Z" transform="translate(-50.56 -65.75)"/><path class="cls-7" d="M201.05,372.13c2.08,0,3.77-1.15,3.77-2.57s-1.69-2.56-3.77-2.56-3.77,1.15-3.77,2.56S199,372.13,201.05,372.13Z" transform="translate(-50.56 -65.75)"/><path class="cls-8" d="M201.05,371c2.08,0,3.77-1.15,3.77-2.56s-1.69-2.56-3.77-2.56-3.77,1.15-3.77,2.56S199,371,201.05,371Z" transform="translate(-50.56 -65.75)"/><path class="cls-9" d="M196.94,299.92h0c.28-3.44,8-3.43,8.2,0h0v66.82h0c-.25,3.43-7.92,3.44-8.2,0h0V299.92Z" transform="translate(-50.56 -65.75)"/><path class="cls-7" d="M204,299.18v69.36a5.26,5.26,0,0,1-2.5.76V300.6A12.74,12.74,0,0,0,204,299.18Z" transform="translate(-50.56 -65.75)"/><path class="cls-10" d="M200.2,312.24v57a4.74,4.74,0,0,1-2.36-.91V311.14C197.84,309.85,200.2,311,200.2,312.24Z" transform="translate(-50.56 -65.75)"/><path class="cls-7" d="M237.8,392.92c2.08,0,3.77-1.16,3.77-2.57s-1.69-2.56-3.77-2.56-3.77,1.15-3.77,2.56S235.73,392.92,237.8,392.92Z" transform="translate(-50.56 -65.75)"/><path class="cls-8" d="M237.8,391.83c2.08,0,3.77-1.15,3.77-2.56s-1.69-2.57-3.77-2.57-3.77,1.16-3.77,2.57S235.73,391.83,237.8,391.83Z" transform="translate(-50.56 -65.75)"/><path class="cls-9" d="M233.69,320.71h0c.28-3.44,8-3.43,8.21,0h0v66.81h0c-.25,3.44-7.93,3.44-8.21,0h0V320.71Z" transform="translate(-50.56 -65.75)"/><path class="cls-7" d="M240.76,320v69.37a5.37,5.37,0,0,1-2.5.76v-68.7A12,12,0,0,0,240.76,320Z" transform="translate(-50.56 -65.75)"/><path class="cls-10" d="M237,333.18V390a5.52,5.52,0,0,1-2.36-.73v-57C234.59,331.23,237,331.63,237,333.18Z" transform="translate(-50.56 -65.75)"/><path class="cls-11" d="M360.13,392.09l0-.15,0-.16,0-.12,0-.1,0-.15,0-.09-.06-.17,0-.06-.09-.23v0l-.1-.21,0-.06-.1-.19,0,0-.14-.22,0-.05-.1-.16-.06-.07-.09-.12-.08-.1-.08-.09-.14-.15-.09-.09-.07-.06-.11-.11-.08-.06-.13-.1-.07,0-.19-.13-.27-.13-.08,0-.14-.06-.1,0-.08,0-.11,0h-.23l-.15,0h0l-.11,0h0l-.13.07,1.38-.81h0l.1-.06h.05l.06,0h.12l.12,0H359l.14.06,0,0,0,0,.26.13.2.12.07.05.13.09.07.06.11.11.08.06,0,0,0,0,.15.14,0,0,0,0,.09.11.05.06,0,.05.05.08.05.06.06.09,0,.06,0,0,.11.18h0l0,0,.07.13,0,.05,0,.07,0,.05.06.15,0,0h0l.08.18v0l0,.07,0,.08v.08l0,.08,0,.06,0,.09,0,.11V391l0,.17v.45a1.55,1.55,0,0,1-.47,1.25l-.13.09-1.38.8a1.46,1.46,0,0,0,.61-1.33v-.31Z" transform="translate(-50.56 -65.75)"/><path class="cls-12" d="M358.07,388.8c-1.15-.65-2.08-.12-2.09,1.2a4.58,4.58,0,0,0,2.08,3.59c1.16.66,2.09.13,2.09-1.19A4.61,4.61,0,0,0,358.07,388.8Z" transform="translate(-50.56 -65.75)"/><path class="cls-11" d="M358,393.45l0-.15,0-.17,0-.11,0-.11,0-.14,0-.09-.06-.17,0-.07-.09-.23v0l-.1-.2,0-.07-.1-.18,0,0-.13-.21,0-.06-.11-.15-.06-.07-.1-.13-.08-.1-.07-.09-.14-.14-.1-.09-.07-.06-.12-.11-.06-.06-.13-.1-.06,0-.21-.13-.25-.13-.09,0-.14-.05-.1,0h-.08l-.11,0h-.23l-.15,0h0l-.12,0h0l-.13.07,1.37-.8h0l.11,0H356l.06,0,.06,0h.52l.09,0h0l.05,0,.15,0,.05,0,0,0,.25.13.2.12.06,0,.13.1.07.06.12.1.07.06.05,0,0,.05.13.15,0,0,0,.05.08.1.06.06,0,.07.06.07,0,0,.07.1,0,.06,0,0,.1.17h0l0,0,.07.13,0,.06,0,.07,0,.05.07.15v0h0l.07.19v0l0,.07,0,.09,0,.07,0,.09,0,.06,0,.09,0,.11v.11l0,.16v.05l0,.11v.07l0,.23a1.56,1.56,0,0,1-.47,1.24l-.15.1-1.37.8a1.47,1.47,0,0,0,.61-1.34l0-.23Z" transform="translate(-50.56 -65.75)"/><path class="cls-12" d="M355.9,390.16c-1.15-.66-2.08-.12-2.08,1.19a4.56,4.56,0,0,0,2.08,3.59c1.15.67,2.09.13,2.09-1.19A4.56,4.56,0,0,0,355.9,390.16Z" transform="translate(-50.56 -65.75)"/><path class="cls-12" d="M355.05,372.15l0-.15,0-.16,0-.12,0-.11,0-.15,0-.08.06-.17,0-.07.09-.23,0,0,.09-.21,0-.06.1-.18,0,0,.13-.21,0-.06.1-.15.06-.08.1-.12.08-.1.08-.09.14-.15.08-.08.07-.07.12-.11.07-.05.13-.1.07,0,.19-.14.26-.12.08,0,.16-.06.08,0,.09,0,.11,0h.22l.16,0h0l.11,0,0,0,.14.06-1.38-.8h0l-.1,0H357l-.05,0h-.53l-.08,0h-.09l-.16.06H356l-.27.13-.19.13-.07.05-.13.09-.07.06-.12.12-.07.06-.05,0,0,0-.13.14-.05,0,0,0-.09.1-.05.07,0,.05-.06.08,0,.05-.06.1,0,.06v0l-.12.18h0l0,0-.07.13,0,.05,0,.07,0,.06-.07.14v0h0l-.08.19v0l0,.07,0,.1,0,.07,0,.08v.06l0,.1,0,.1V371l0,.17v.45a1.59,1.59,0,0,0,.48,1.25l.14.09,1.38.79a1.42,1.42,0,0,1-.62-1.33v-.3Z" transform="translate(-50.56 -65.75)"/><path class="cls-11" d="M357.1,368.85c1.15-.66,2.09-.13,2.09,1.19a4.53,4.53,0,0,1-2.07,3.6c-1.14.67-2.08.14-2.09-1.19A4.63,4.63,0,0,1,357.1,368.85Z" transform="translate(-50.56 -65.75)"/><path class="cls-12" d="M357.21,373.5l0-.15,0-.17,0-.11,0-.11,0-.14,0-.09.05-.17,0-.07.09-.23v0l.1-.2,0-.07.1-.19,0,0,.14-.21,0-.06.1-.15.06-.08.09-.12.08-.1.08-.09.14-.15.08-.09.07-.06.12-.11.07-.06.14-.09.06-.05.2-.12.26-.13.09,0,.14-.05.09,0,.08,0,.12,0h.23l.15,0h0l.12,0h0l.14.07-1.39-.8h0l-.11-.05h-.05l-.06,0H359l-.14,0h-.35l-.08,0h-.1l-.14.05-.05,0,0,0-.26.13-.2.12-.06.05-.13.1-.07.06-.12.1-.07.06,0,0-.05.05-.14.15,0,0,0,.05-.08.1-.05.06,0,.06-.06.08-.05.05,0,.1-.05.06v0l-.11.17h0l0,0-.07.12,0,.06,0,.07,0,.05-.06.15v0h0l-.07.19,0,0,0,.06,0,.1,0,.07,0,.09,0,.05,0,.09,0,.11v.11l0,.17,0,0V373a1.56,1.56,0,0,0,.48,1.25l.13.09,1.38.8a1.47,1.47,0,0,1-.61-1.34v-.3Z" transform="translate(-50.56 -65.75)"/><path class="cls-11" d="M359.27,370.21c1.15-.67,2.08-.13,2.09,1.18a4.56,4.56,0,0,1-2.07,3.6c-1.15.66-2.08.13-2.09-1.19A4.54,4.54,0,0,1,359.27,370.21Z" transform="translate(-50.56 -65.75)"/><path class="cls-11" d="M326.71,372.59v-.15l0-.16,0-.11,0-.12,0-.14,0-.09-.05-.17,0-.06-.09-.23v0l-.1-.2,0-.06-.09-.19,0,0-.13-.21,0-.05-.1-.16-.07-.08-.09-.11-.08-.1-.09-.09-.13-.15-.09-.09-.07-.06-.12-.11-.07-.06-.13-.09-.06-.05-.2-.13-.26-.13-.08,0-.15-.06-.09,0-.09,0-.11,0h-.23l-.15,0h0l-.12,0h0l-.14.06,1.38-.8h0l.1-.05h.06l0,0h.54l.05,0h.08l.05,0h0l.15,0,.06,0,0,0,.25.13.21.12.06,0,.13.11.07.06.12.09.07.07,0,0,0,0,.13.14.05,0,0,0,.08.1.05.07,0,.05.06.08,0,.06.06.09,0,.06,0,0,.1.18h0v0l.07.13,0,.05,0,.07,0,.05.07.15v0h0l.09.18v0l0,.07,0,.09,0,.07,0,.09v.05l0,.1,0,.1v.11l0,.17v.05l0,.1v.31a1.56,1.56,0,0,1-.47,1.24l-.14.09-1.38.8a1.44,1.44,0,0,0,.61-1.33v-.31Z" transform="translate(-50.56 -65.75)"/><path class="cls-12" d="M324.65,369.3c-1.16-.65-2.09-.13-2.08,1.2a4.54,4.54,0,0,0,2.07,3.59c1.15.66,2.08.13,2.09-1.19A4.61,4.61,0,0,0,324.65,369.3Z" transform="translate(-50.56 -65.75)"/><path class="cls-11" d="M324.55,374l0-.15,0-.17,0-.11,0-.1,0-.15,0-.09-.06-.17,0-.07-.1-.23v0l-.09-.2,0-.07-.11-.19,0,0-.13-.21,0-.06-.1-.15-.06-.08-.09-.12-.08-.1-.08-.09-.14-.14-.09-.09-.07-.07L323,371l-.07-.06-.13-.1-.07,0-.2-.13-.26-.13-.08,0-.14-.05-.1,0-.08,0h-.34l-.15,0h0l-.12,0h0l-.13.07,1.37-.81h0l.11,0h.05l.06,0h.59l.08,0h.05l0,0,.15,0,.05,0,0,0,.26.13.2.12.06,0,.14.1.07.06.12.1.07.06,0,0,.05.05.14.15,0,.05,0,0,.08.09.06.07,0,.06.06.08,0,0,.06.1,0,.05,0,0,.11.17h0l0,.05.07.12,0,.06,0,.06,0,.06.06.14v0h0l.07.19v0l0,.07,0,.1,0,.06,0,.09,0,.06,0,.09,0,.11v.11l0,.16v.46a1.49,1.49,0,0,1-.47,1.24l-.13.1-1.38.8a1.45,1.45,0,0,0,.61-1.34V374Z" transform="translate(-50.56 -65.75)"/><path class="cls-12" d="M322.48,370.66c-1.14-.66-2.08-.12-2.08,1.19a4.59,4.59,0,0,0,2.08,3.6c1.15.66,2.09.12,2.09-1.2A4.56,4.56,0,0,0,322.48,370.66Z" transform="translate(-50.56 -65.75)"/><polygon class="cls-13" points="306.22 325.85 310.78 323.18 311.22 322.51 306.65 325.17 306.22 325.85"/><path class="cls-14" d="M335.46,373.65l.31.15.52.27Z" transform="translate(-50.56 -65.75)"/><path class="cls-7" d="M340.15,377.33c.29.17.56.34.83.52,5.95,3.82,11,8.64,15.8,13.75l.44-.68c-4.16-5.19-10.68-10.49-16.24-14.13Z" transform="translate(-50.56 -65.75)"/><path class="cls-7" d="M320.17,369.6l.42,1.18a34.79,34.79,0,0,1,14.91,4l.91-.6A34.74,34.74,0,0,0,320.17,369.6Z" transform="translate(-50.56 -65.75)"/><path class="cls-14" d="M352,371.32c.38-.14.77-.26,1.18-.38-.19.05-.38.12-.56.18Z" transform="translate(-50.56 -65.75)"/><path class="cls-14" d="M350.85,371.73l.53-.2Z" transform="translate(-50.56 -65.75)"/><path class="cls-14" d="M345.66,374.05l.53-.26.22-.12Z" transform="translate(-50.56 -65.75)"/><path class="cls-7" d="M345.54,374.12c.31.19.61.39.91.6a34.73,34.73,0,0,1,14.91-4l.4-1.18A35.26,35.26,0,0,0,345.54,374.12Z" transform="translate(-50.56 -65.75)"/><path class="cls-12" d="M322.13,391.6l0-.15,0-.16,0-.12,0-.11,0-.15,0-.08.06-.17,0-.07.09-.23v0l.1-.2,0-.05.1-.19,0,0,.13-.21,0-.07.11-.14.06-.08.08-.12.09-.1.07-.09.14-.15.09-.08.07-.08.12-.1.07-.05.13-.11.06,0,.21-.13.25-.13.09,0,.14-.05.1,0,.08,0,.11,0h.38l0,0,.11,0,0,0,.13.06-1.37-.8h0l-.11-.05h0l0,0-.06,0h-.59l-.09,0h-.05l0,0-.14,0-.06,0h0l-.25.13-.21.13-.06,0-.13.1-.07.06-.12.11-.07.07,0,0-.05,0-.14.15,0,.05,0,0-.08.1-.06.07,0,.05-.05.07-.05.06-.06.1,0,.06,0,0-.11.18h0l0,0-.07.13,0,0,0,.07,0,.05-.07.15v0h0l-.07.19v0l0,.06,0,.09,0,.08,0,.08,0,.05,0,.1,0,.1v.13l0,.16v.05l0,.1v.31a1.51,1.51,0,0,0,.48,1.23l.13.09,1.38.81a1.47,1.47,0,0,1-.6-1.34v-.3Z" transform="translate(-50.56 -65.75)"/><path class="cls-11" d="M324.19,388.3c1.14-.66,2.08-.13,2.09,1.19a4.63,4.63,0,0,1-2.07,3.6c-1.16.67-2.09.13-2.09-1.19A4.55,4.55,0,0,1,324.19,388.3Z" transform="translate(-50.56 -65.75)"/><path class="cls-12" d="M324.29,393l0-.15,0-.17,0-.11,0-.11,0-.15,0-.08.06-.17,0-.07.1-.23v0l.09-.2,0-.07.09-.19,0,0L325,391l0-.06.1-.15.06-.07.09-.12.08-.1.08-.09.14-.15.09-.09.07-.06.12-.11.07-.06.13-.09.06-.05.2-.13.26-.13.08,0,.15-.05.09,0H327l.1,0h.23l.15,0h0l.12,0h0l.14.07-1.38-.8h0l-.1-.05h-.06l0,0-.07,0h-.52l-.09,0,0,0h-.05l-.15.05-.05,0,0,0-.27.13-.19.12-.06,0-.14.09-.06.07-.12.1-.07.06-.05,0,0,0-.14.15,0,.05,0,0-.08.1-.05.06-.05.05-.05.09,0,0-.06.1-.05.06v0l-.11.17v.05l-.08.13,0,.06,0,.07,0,.05-.07.15v0h0l-.09.19v0l0,.07,0,.1,0,.07,0,.08v.06l0,.1,0,.1v0l0,.08,0,.17v.45a1.6,1.6,0,0,0,.47,1.25l.14.08,1.38.8a1.43,1.43,0,0,1-.61-1.33V393Z" transform="translate(-50.56 -65.75)"/><path class="cls-11" d="M326.35,389.65c1.14-.66,2.08-.13,2.09,1.19a4.6,4.6,0,0,1-2.07,3.6c-1.15.66-2.09.13-2.09-1.19A4.57,4.57,0,0,1,326.35,389.65Z" transform="translate(-50.56 -65.75)"/><path class="cls-7" d="M324.78,391l.44.68A72.9,72.9,0,0,1,341,377.85l.82-.52-.82-.54A80.83,80.83,0,0,0,324.78,391Z" transform="translate(-50.56 -65.75)"/><polygon class="cls-13" points="269.67 322.53 270.11 323.21 274.66 325.9 274.21 325.22 269.67 322.53"/><path class="cls-15" d="M320.23,388.28l4.55,2.69A80.52,80.52,0,0,1,341,376.79c5.71,3.73,12,8.9,16.24,14.13l4.57-2.66,0,0c-5.13-5.33-9.93-10.08-16.21-14.1,5-2.67,10.47-4.58,16.22-4.58l-4.58-2.65A36.12,36.12,0,0,0,341,371.46a35.66,35.66,0,0,0-16.23-4.53l-4.57,2.67c5.52,0,11.28,1.93,16.12,4.47C330.13,377.69,324.94,382.89,320.23,388.28Z" transform="translate(-50.56 -65.75)"/><path class="cls-7" d="M337.84,345v.1l0,.09v.08l0,.1,0,.07,0,.09,0,.07.07.11,0,.06.13.14.05.05.09.07.09.08.11.07.12.07a2.86,2.86,0,0,0,.43.21l.11,0,.3.09.31.07.36.07h.1l.51,0H341l.51,0h.07a4,4,0,0,0,.5-.08l.09,0,.42-.14.07,0a2.28,2.28,0,0,0,.47-.23A1.51,1.51,0,0,0,344,345l.12,28.88a1.54,1.54,0,0,1-.9,1.27,4.69,4.69,0,0,1-.45.21h0l-.08,0-.27.09-.15,0-.09,0-.07,0-.31.06h-.3l-.3,0h-.32l-.34,0h-.13l-.26,0-.11,0-.31-.08-.16,0-.13-.05-.12-.05a2,2,0,0,1-.42-.2l0,0-.08,0-.11-.07-.09-.07-.1-.08,0,0,0,0-.13-.15,0,0,0,0-.08-.11,0,0v0l-.05-.09,0-.06v0l0-.09v-.26Z" transform="translate(-50.56 -65.75)"/><path class="cls-15" d="M343.2,369.5v4.88l-.08.05-.43.2h0l-.07,0-.26.08-.14,0-.1,0-.06,0-.3.05h-.28l-.29,0h-.3l-.33,0h-.12l-.25,0-.1,0-.25-.06v-2.46A11.05,11.05,0,0,1,343.2,369.5Z" transform="translate(-50.56 -65.75)"/><polygon class="cls-16" points="318.06 189.6 185.83 264.32 138.83 236.93 138.83 234.11 271.14 162.28 318.06 186.79 318.06 189.6"/><polygon class="cls-17" points="185.72 264.26 138.83 236.93 138.83 234.11 166.82 218.92 185.72 226.89 185.72 264.26"/><polygon class="cls-18" points="318.06 186.79 185.83 261.51 138.83 234.11 271.14 159.46 318.06 186.79"/><polygon class="cls-19" points="292.47 274.95 295.1 273.42 304.6 239.92 301.97 241.44 292.47 274.95"/><path class="cls-20" d="M315.68,305c-3.12,11.86.76,25.83-2.09,36.47.25,3.93,8.16,6.74,12.17,2.84,2.14-11.65,3-6.62,3.29-13,.23-5.33,2.11-21.24.75-25.92C329.05,299.43,319.7,289.72,315.68,305Z" transform="translate(-50.56 -65.75)"/><path class="cls-21" d="M292.62,312.85c.24,9.65,1.3,13.27,1.9,24.2.15,2.64-2.69,6.57,3,9.57,3.29,3.5,7.5,5.56,11,3.77,5.14.53,2.69-13.16.31-21.14-.44-5.33-.12-11.34-2.08-16C305.28,307.31,292.36,302.4,292.62,312.85Z" transform="translate(-50.56 -65.75)"/><path class="cls-22" d="M344.1,353.28c13.15-7.74,28.94-15.6,43.06-24.6-1.77-8.25-30.83-15.88-49.52-27.42-12.22,7.79-23.44,14.11-35.4,21.52a4,4,0,0,0,.07,6.78C320.55,340.33,339.59,346.2,344.1,353.28Z" transform="translate(-50.56 -65.75)"/><path class="cls-23" d="M344,353.22c0,4.27,1.56,6.72,1.56,11L307.2,345.75c-4.86-2.34-7.49-5.26-7.47-6.69.06-4.18.68-9.38.68-13.56C299.68,331.59,341.13,345.53,344,353.22Z" transform="translate(-50.56 -65.75)"/><path class="cls-20" d="M323.81,310.42c-2.24-2.21-6.16-3.34-2.64-7,2.06-2.13,2.47-7.72,6.82-6.94,6.91,1.24,27.92,11.64,34,16.4l11.84-1.17c.55,6,1,6-1.21,12.72-1.32,4.13.3,3.16-3.54,5.27a32,32,0,0,1-7.29,3,13.08,13.08,0,0,1-8.62-1.14C345.37,327.58,328.34,313.17,323.81,310.42Z" transform="translate(-50.56 -65.75)"/><path class="cls-21" d="M295.36,318.35c-3.77-2.13-3.74-7.65-.69-11.33,1.79-2.13,5.27-3.14,9.73-2.36,7.06,1.24,31.56,6.91,38.23,11.67h13.8c1.32,6,.59,6.36-.71,13.1-.81,4.15,1,2.7-2.59,4.79a27.26,27.26,0,0,1-6.91,3c-2.84.55-11.17.52-14.1-.89C323.83,332.34,304.49,325.68,295.36,318.35Z" transform="translate(-50.56 -65.75)"/><path class="cls-8" d="M330.21,270.34l-13.4-7.78a4,4,0,0,0-4.06,0L275,284a1.4,1.4,0,0,0-.72,1.24,1.41,1.41,0,0,0,.72,1.25l13.65,7.75a4,4,0,0,0,4,0l37.56-21.39a1.42,1.42,0,0,0,0-2.47Z" transform="translate(-50.56 -65.75)"/><path class="cls-9" d="M330.34,269.86l-13.4-7.78a4,4,0,0,0-4.06,0l-37.79,21.43a1.43,1.43,0,0,0,0,2.49l13.65,7.75a4,4,0,0,0,4,0l37.56-21.39a1.42,1.42,0,0,0,0-2.47Z" transform="translate(-50.56 -65.75)"/><path class="cls-24" d="M315,262.38l-1.78,1a.21.21,0,0,0,0,.36c.83.48.92.55,1.77,1.05a.53.53,0,0,0,.52,0l1.78-1a.21.21,0,0,0,.11-.18.23.23,0,0,0-.1-.19c-.83-.48-.91-.55-1.77-1A.49.49,0,0,0,315,262.38Z" transform="translate(-50.56 -65.75)"/><path class="cls-25" d="M315,262.12l-1.78,1a.21.21,0,0,0-.11.18.18.18,0,0,0,.1.18l1.8,1a.49.49,0,0,0,.52,0l1.78-1a.22.22,0,0,0,.1-.18.21.21,0,0,0-.1-.19l-1.79-1A.53.53,0,0,0,315,262.12Z" transform="translate(-50.56 -65.75)"/><path class="cls-24" d="M312.55,263.78l-1.78,1a.21.21,0,0,0-.11.19.2.2,0,0,0,.1.18l1.77,1a.49.49,0,0,0,.52,0c.6-.33,1.19-.67,1.78-1a.2.2,0,0,0,.11-.18.22.22,0,0,0-.1-.18c-.83-.48-.91-.55-1.77-1.05A.53.53,0,0,0,312.55,263.78Z" transform="translate(-50.56 -65.75)"/><path class="cls-25" d="M312.55,263.53l-1.78,1a.2.2,0,0,0-.11.18.19.19,0,0,0,.1.18l1.8,1a.51.51,0,0,0,.52,0l1.78-1a.2.2,0,0,0,.1-.18.2.2,0,0,0-.1-.18l-1.79-1A.49.49,0,0,0,312.55,263.53Z" transform="translate(-50.56 -65.75)"/><path class="cls-24" d="M310.07,265.19l-1.78,1a.21.21,0,0,0-.11.18.18.18,0,0,0,.1.18c.83.48.92.55,1.77,1.05a.51.51,0,0,0,.53,0l1.77-1a.2.2,0,0,0,.11-.18.19.19,0,0,0-.1-.18c-.83-.48-.91-.55-1.77-1.05A.53.53,0,0,0,310.07,265.19Z" transform="translate(-50.56 -65.75)"/><path class="cls-25" d="M310.07,264.94l-1.78,1a.2.2,0,0,0-.11.18.19.19,0,0,0,.1.18l1.8,1a.53.53,0,0,0,.52,0l1.78-1a.21.21,0,0,0,.1-.18.19.19,0,0,0-.1-.18l-1.79-1A.49.49,0,0,0,310.07,264.94Z" transform="translate(-50.56 -65.75)"/><path class="cls-24" d="M307.59,266.6l-1.78,1a.2.2,0,0,0-.11.18.21.21,0,0,0,.1.18c.83.48.92.55,1.77,1a.55.55,0,0,0,.53,0l1.77-1a.21.21,0,0,0,.11-.18.18.18,0,0,0-.1-.18c-.83-.49-.91-.55-1.77-1A.49.49,0,0,0,307.59,266.6Z" transform="translate(-50.56 -65.75)"/><path class="cls-25" d="M307.59,266.34l-1.78,1a.21.21,0,0,0-.11.19.22.22,0,0,0,.1.18c.83.48.94.52,1.8,1a.51.51,0,0,0,.52,0l1.78-1a.22.22,0,0,0,.1-.18.19.19,0,0,0-.1-.18c-.82-.49-.93-.54-1.79-1A.53.53,0,0,0,307.59,266.34Z" transform="translate(-50.56 -65.75)"/><path class="cls-24" d="M305.11,268l-1.78,1a.2.2,0,0,0-.11.18.21.21,0,0,0,.1.18l1.78,1.05a.53.53,0,0,0,.52,0l1.77-1a.21.21,0,0,0,.11-.18.21.21,0,0,0-.1-.19l-1.77-1A.49.49,0,0,0,305.11,268Z" transform="translate(-50.56 -65.75)"/><path class="cls-25" d="M305.11,267.75l-1.78,1a.21.21,0,0,0-.11.18.23.23,0,0,0,.1.19c.83.47.94.52,1.8,1a.49.49,0,0,0,.52,0l1.78-1a.22.22,0,0,0,.1-.18.19.19,0,0,0-.1-.19l-1.79-1A.53.53,0,0,0,305.11,267.75Z" transform="translate(-50.56 -65.75)"/><path class="cls-24" d="M302.63,269.41l-1.78,1a.21.21,0,0,0-.11.19.22.22,0,0,0,.1.18l1.78,1a.51.51,0,0,0,.52,0l1.77-1a.19.19,0,0,0,.11-.18.2.2,0,0,0-.1-.18c-.83-.48-.91-.55-1.77-1A.53.53,0,0,0,302.63,269.41Z" transform="translate(-50.56 -65.75)"/><path class="cls-25" d="M302.63,269.16l-1.78,1a.2.2,0,0,0-.11.18.21.21,0,0,0,.1.18l1.8,1a.49.49,0,0,0,.52,0l1.78-1a.2.2,0,0,0,.1-.18.18.18,0,0,0-.1-.18l-1.79-1A.49.49,0,0,0,302.63,269.16Z" transform="translate(-50.56 -65.75)"/><path class="cls-24" d="M300.15,270.82l-1.78,1a.21.21,0,0,0-.11.18.23.23,0,0,0,.1.19c.83.47.92.54,1.78,1a.49.49,0,0,0,.52,0l1.77-1a.2.2,0,0,0,.11-.18.19.19,0,0,0-.1-.18c-.83-.48-.91-.55-1.77-1.05A.53.53,0,0,0,300.15,270.82Z" transform="translate(-50.56 -65.75)"/><path class="cls-25" d="M300.15,270.57l-1.78,1a.2.2,0,0,0-.11.18.21.21,0,0,0,.1.18l1.8,1a.53.53,0,0,0,.52,0l1.78-1a.21.21,0,0,0,.1-.18.17.17,0,0,0-.1-.18l-1.79-1A.49.49,0,0,0,300.15,270.57Z" transform="translate(-50.56 -65.75)"/><path class="cls-24" d="M297.67,272.23l-1.78,1a.2.2,0,0,0-.11.18.21.21,0,0,0,.1.18l1.78,1a.51.51,0,0,0,.52,0l1.77-1a.21.21,0,0,0,.11-.18.19.19,0,0,0-.1-.18c-.83-.49-.91-.55-1.77-1A.49.49,0,0,0,297.67,272.23Z" transform="translate(-50.56 -65.75)"/><path class="cls-25" d="M297.67,272l-1.78,1a.19.19,0,0,0-.11.18.22.22,0,0,0,.1.18c.83.48.94.52,1.8,1a.51.51,0,0,0,.52,0l1.78-1a.22.22,0,0,0,.1-.18.17.17,0,0,0-.1-.18c-.82-.49-.93-.54-1.79-1A.51.51,0,0,0,297.67,272Z" transform="translate(-50.56 -65.75)"/><path class="cls-24" d="M295.19,273.64l-1.78,1a.2.2,0,0,0-.11.18.21.21,0,0,0,.1.18l1.78,1.05a.53.53,0,0,0,.52,0c.59-.34,1.18-.68,1.78-1a.22.22,0,0,0,.1-.18.21.21,0,0,0-.1-.19l-1.77-1A.49.49,0,0,0,295.19,273.64Z" transform="translate(-50.56 -65.75)"/><path class="cls-25" d="M295.19,273.38l-1.78,1a.21.21,0,0,0-.11.18.23.23,0,0,0,.1.19c.83.47.94.52,1.8,1a.49.49,0,0,0,.52,0l1.78-1a.27.27,0,0,0,.11-.18.21.21,0,0,0-.11-.19l-1.79-1A.53.53,0,0,0,295.19,273.38Z" transform="translate(-50.56 -65.75)"/><path class="cls-24" d="M292.71,275l-1.78,1a.19.19,0,0,0-.11.18.22.22,0,0,0,.1.18l1.78,1a.51.51,0,0,0,.52,0l1.78-1a.2.2,0,0,0,.1-.18.2.2,0,0,0-.1-.18c-.82-.48-.91-.55-1.77-1A.53.53,0,0,0,292.71,275Z" transform="translate(-50.56 -65.75)"/><path class="cls-25" d="M292.71,274.79l-1.78,1a.21.21,0,0,0,0,.36l1.8,1a.49.49,0,0,0,.52,0l1.78-1a.21.21,0,0,0,.11-.18.21.21,0,0,0-.11-.18l-1.79-1A.53.53,0,0,0,292.71,274.79Z" transform="translate(-50.56 -65.75)"/><path class="cls-24" d="M290.23,276.45c-.59.34-1.18.68-1.78,1a.21.21,0,0,0-.11.18.23.23,0,0,0,.1.19l1.78,1a.49.49,0,0,0,.52,0l1.78-1a.21.21,0,0,0,.1-.18.19.19,0,0,0-.1-.18c-.82-.48-.91-.55-1.77-1.05A.53.53,0,0,0,290.23,276.45Z" transform="translate(-50.56 -65.75)"/><path class="cls-25" d="M290.23,276.2l-1.78,1a.2.2,0,0,0-.11.18.21.21,0,0,0,.1.18l1.8,1a.53.53,0,0,0,.52,0l1.78-1a.22.22,0,0,0,.11-.18.2.2,0,0,0-.11-.18l-1.79-1A.49.49,0,0,0,290.23,276.2Z" transform="translate(-50.56 -65.75)"/><path class="cls-24" d="M287.75,277.86l-1.78,1a.21.21,0,0,0,0,.36l1.78,1a.49.49,0,0,0,.52,0l1.78-1a.21.21,0,0,0,.1-.18.19.19,0,0,0-.1-.18c-.82-.49-.91-.55-1.77-1.05A.49.49,0,0,0,287.75,277.86Z" transform="translate(-50.56 -65.75)"/><path class="cls-25" d="M287.75,277.61l-1.78,1a.19.19,0,0,0-.11.18.22.22,0,0,0,.1.18c.83.48.94.52,1.8,1a.53.53,0,0,0,.52,0l1.78-1a.22.22,0,0,0,.11-.18.2.2,0,0,0-.11-.18l-1.79-1A.51.51,0,0,0,287.75,277.61Z" transform="translate(-50.56 -65.75)"/><path class="cls-24" d="M285.27,279.27l-1.78,1a.2.2,0,0,0-.11.18.21.21,0,0,0,.1.18c.84.48.92.55,1.78,1.05a.53.53,0,0,0,.52,0c.59-.34,1.18-.68,1.78-1a.22.22,0,0,0,.1-.18.18.18,0,0,0-.1-.18c-.82-.49-.91-.55-1.77-1.05A.49.49,0,0,0,285.27,279.27Z" transform="translate(-50.56 -65.75)"/><path class="cls-25" d="M285.27,279c-.59.34-1.18.68-1.78,1a.21.21,0,0,0-.11.18.23.23,0,0,0,.1.19c.84.48.94.52,1.8,1a.49.49,0,0,0,.52,0l1.78-1a.21.21,0,0,0,.11-.18.19.19,0,0,0-.11-.18c-.82-.49-.93-.54-1.79-1A.53.53,0,0,0,285.27,279Z" transform="translate(-50.56 -65.75)"/><path class="cls-24" d="M282.79,280.68l-1.78,1a.19.19,0,0,0-.11.18.22.22,0,0,0,.1.18c.84.48.92.54,1.78,1a.51.51,0,0,0,.52,0l1.78-1a.2.2,0,0,0,.1-.18.18.18,0,0,0-.1-.18c-.82-.48-.91-.55-1.77-1.05A.51.51,0,0,0,282.79,280.68Z" transform="translate(-50.56 -65.75)"/><path class="cls-25" d="M282.79,280.42l-1.78,1a.21.21,0,0,0-.11.18.2.2,0,0,0,.1.18l1.8,1a.49.49,0,0,0,.52,0l1.78-1a.19.19,0,0,0,.11-.18.21.21,0,0,0-.11-.18l-1.79-1A.53.53,0,0,0,282.79,280.42Z" transform="translate(-50.56 -65.75)"/><path class="cls-24" d="M280.31,282.08c-.59.34-1.18.68-1.78,1a.21.21,0,0,0-.11.18.23.23,0,0,0,.1.19c.84.48.92.54,1.78,1a.49.49,0,0,0,.52,0l1.78-1a.21.21,0,0,0,.1-.18.17.17,0,0,0-.1-.18c-.82-.48-.91-.55-1.77-1.05A.53.53,0,0,0,280.31,282.08Z" transform="translate(-50.56 -65.75)"/><path class="cls-25" d="M280.31,281.83l-1.78,1a.2.2,0,0,0-.11.18.21.21,0,0,0,.1.18l1.8,1a.53.53,0,0,0,.52,0l1.78-1a.2.2,0,0,0,.11-.18.22.22,0,0,0-.1-.18l-1.8-1A.49.49,0,0,0,280.31,281.83Z" transform="translate(-50.56 -65.75)"/><path class="cls-24" d="M277.83,283.49l-1.78,1a.21.21,0,0,0-.11.18.19.19,0,0,0,.11.18c.83.48.91.55,1.77,1.05a.49.49,0,0,0,.52,0l1.78-1a.21.21,0,0,0,.1-.18.17.17,0,0,0-.1-.18c-.82-.48-.91-.55-1.77-1.05A.53.53,0,0,0,277.83,283.49Z" transform="translate(-50.56 -65.75)"/><path class="cls-25" d="M277.83,283.24l-1.78,1a.19.19,0,0,0-.11.18.22.22,0,0,0,.1.18c.84.48.95.53,1.8,1a.53.53,0,0,0,.52,0l1.78-1a.2.2,0,0,0,.11-.18.21.21,0,0,0-.1-.18l-1.8-1A.49.49,0,0,0,277.83,283.24Z" transform="translate(-50.56 -65.75)"/><path class="cls-24" d="M317.51,263.81l-1.78,1a.21.21,0,0,0-.11.18.23.23,0,0,0,.1.19l1.77,1a.51.51,0,0,0,.53,0l1.77-1a.2.2,0,0,0,.11-.18.19.19,0,0,0-.1-.18c-.83-.48-.91-.55-1.77-1.05A.53.53,0,0,0,317.51,263.81Z" transform="translate(-50.56 -65.75)"/><path class="cls-25" d="M317.51,263.56l-1.78,1a.2.2,0,0,0-.11.18.21.21,0,0,0,.1.18l1.8,1a.53.53,0,0,0,.52,0l1.78-1a.21.21,0,0,0,.1-.18.18.18,0,0,0-.1-.18l-1.79-1A.49.49,0,0,0,317.51,263.56Z" transform="translate(-50.56 -65.75)"/><path class="cls-24" d="M315,265.22l-1.78,1a.21.21,0,0,0-.11.18.18.18,0,0,0,.1.18c.83.48.92.55,1.77,1.05a.51.51,0,0,0,.53,0l1.77-1a.2.2,0,0,0,.11-.18.19.19,0,0,0-.1-.18c-.83-.48-.91-.55-1.77-1A.53.53,0,0,0,315,265.22Z" transform="translate(-50.56 -65.75)"/><path class="cls-25" d="M315,265l-1.78,1a.19.19,0,0,0-.11.18.2.2,0,0,0,.1.18l1.8,1a.53.53,0,0,0,.52,0l1.78-1a.21.21,0,0,0,.1-.18.17.17,0,0,0-.1-.18l-1.79-1A.49.49,0,0,0,315,265Z" transform="translate(-50.56 -65.75)"/><path class="cls-24" d="M312.55,266.63l-1.78,1a.2.2,0,0,0-.11.18.21.21,0,0,0,.1.18c.83.48.92.55,1.77,1.05a.55.55,0,0,0,.53,0l1.77-1a.21.21,0,0,0,.11-.18.18.18,0,0,0-.1-.18c-.83-.49-.91-.55-1.77-1.05A.49.49,0,0,0,312.55,266.63Z" transform="translate(-50.56 -65.75)"/><path class="cls-25" d="M312.55,266.37l-1.78,1a.21.21,0,0,0-.11.19.22.22,0,0,0,.1.18c.83.48.94.52,1.8,1a.51.51,0,0,0,.52,0c.59-.34,1.18-.68,1.78-1a.22.22,0,0,0,.1-.18.17.17,0,0,0-.1-.18c-.82-.49-.93-.54-1.79-1A.53.53,0,0,0,312.55,266.37Z" transform="translate(-50.56 -65.75)"/><path class="cls-24" d="M310.07,268l-1.78,1a.19.19,0,0,0-.11.18.22.22,0,0,0,.1.18l1.78,1a.51.51,0,0,0,.52,0l1.77-1a.21.21,0,0,0,.11-.19.2.2,0,0,0-.1-.18c-.83-.48-.91-.55-1.77-1A.49.49,0,0,0,310.07,268Z" transform="translate(-50.56 -65.75)"/><path class="cls-25" d="M310.07,267.78l-1.78,1a.21.21,0,0,0-.11.18.2.2,0,0,0,.1.18l1.8,1a.49.49,0,0,0,.52,0l1.78-1a.23.23,0,0,0,.1-.19.18.18,0,0,0-.1-.18l-1.79-1A.53.53,0,0,0,310.07,267.78Z" transform="translate(-50.56 -65.75)"/><path class="cls-24" d="M307.59,269.44l-1.78,1a.21.21,0,0,0-.11.19.22.22,0,0,0,.1.18l1.78,1a.49.49,0,0,0,.52,0l1.77-1a.21.21,0,0,0,0-.36c-.82-.48-.91-.55-1.77-1.05A.53.53,0,0,0,307.59,269.44Z" transform="translate(-50.56 -65.75)"/><path class="cls-25" d="M307.59,269.19l-1.78,1a.2.2,0,0,0-.11.18.21.21,0,0,0,.1.18l1.8,1a.53.53,0,0,0,.52,0l1.78-1a.2.2,0,0,0,.1-.18.18.18,0,0,0-.1-.18l-1.79-1A.49.49,0,0,0,307.59,269.19Z" transform="translate(-50.56 -65.75)"/><path class="cls-24" d="M305.11,270.85l-1.78,1a.21.21,0,0,0-.11.18.2.2,0,0,0,.1.18l1.78,1a.49.49,0,0,0,.52,0l1.78-1a.21.21,0,0,0,.1-.18.19.19,0,0,0-.1-.18c-.82-.48-.91-.55-1.77-1A.53.53,0,0,0,305.11,270.85Z" transform="translate(-50.56 -65.75)"/><path class="cls-25" d="M305.11,270.6l-1.78,1a.19.19,0,0,0-.11.18.22.22,0,0,0,.1.18l1.8,1a.53.53,0,0,0,.52,0l1.78-1a.25.25,0,0,0,.11-.18.2.2,0,0,0-.11-.18l-1.79-1A.49.49,0,0,0,305.11,270.6Z" transform="translate(-50.56 -65.75)"/><path class="cls-24" d="M302.63,272.26l-1.78,1a.2.2,0,0,0-.11.18.21.21,0,0,0,.1.18l1.78,1.05a.53.53,0,0,0,.52,0l1.78-1a.22.22,0,0,0,.1-.18.18.18,0,0,0-.1-.18c-.82-.49-.91-.55-1.77-1.05A.49.49,0,0,0,302.63,272.26Z" transform="translate(-50.56 -65.75)"/><path class="cls-25" d="M302.63,272l-1.78,1a.21.21,0,0,0-.11.19.22.22,0,0,0,.1.18c.83.48.94.52,1.8,1a.51.51,0,0,0,.52,0l1.78-1a.27.27,0,0,0,.11-.18.2.2,0,0,0-.11-.18c-.82-.49-.93-.54-1.79-1A.53.53,0,0,0,302.63,272Z" transform="translate(-50.56 -65.75)"/><path class="cls-24" d="M300.15,273.67l-1.78,1a.2.2,0,0,0-.11.18.21.21,0,0,0,.1.18l1.78,1a.53.53,0,0,0,.52,0c.59-.34,1.18-.68,1.78-1a.23.23,0,0,0,.1-.19.2.2,0,0,0-.1-.18c-.82-.48-.91-.55-1.77-1A.49.49,0,0,0,300.15,273.67Z" transform="translate(-50.56 -65.75)"/><path class="cls-25" d="M300.15,273.41l-1.78,1a.21.21,0,0,0-.11.18.2.2,0,0,0,.1.18l1.8,1a.49.49,0,0,0,.52,0l1.78-1a.23.23,0,0,0,.11-.18.21.21,0,0,0-.11-.19l-1.79-1A.53.53,0,0,0,300.15,273.41Z" transform="translate(-50.56 -65.75)"/><path class="cls-24" d="M297.67,275.07c-.59.34-1.18.68-1.78,1a.21.21,0,0,0-.11.19.22.22,0,0,0,.1.18c.84.48.92.54,1.78,1a.51.51,0,0,0,.52,0l1.78-1a.21.21,0,0,0,.1-.18.2.2,0,0,0-.1-.18c-.82-.48-.91-.55-1.77-1.05A.53.53,0,0,0,297.67,275.07Z" transform="translate(-50.56 -65.75)"/><path class="cls-25" d="M297.67,274.82l-1.78,1a.2.2,0,0,0-.11.18.21.21,0,0,0,.1.18l1.8,1a.49.49,0,0,0,.52,0l1.78-1a.21.21,0,0,0,.11-.18.21.21,0,0,0-.11-.18l-1.79-1A.49.49,0,0,0,297.67,274.82Z" transform="translate(-50.56 -65.75)"/><path class="cls-24" d="M295.19,276.48c-.59.34-1.18.68-1.78,1a.21.21,0,0,0-.11.18.2.2,0,0,0,.1.18c.84.48.92.55,1.78,1a.49.49,0,0,0,.52,0l1.78-1a.21.21,0,0,0,.1-.18.19.19,0,0,0-.1-.18c-.82-.48-.91-.55-1.77-1A.53.53,0,0,0,295.19,276.48Z" transform="translate(-50.56 -65.75)"/><path class="cls-25" d="M295.19,276.23l-1.78,1a.2.2,0,0,0-.11.18.21.21,0,0,0,.1.18l1.8,1a.53.53,0,0,0,.52,0l1.78-1a.22.22,0,0,0,.11-.18.2.2,0,0,0-.11-.18l-1.79-1A.49.49,0,0,0,295.19,276.23Z" transform="translate(-50.56 -65.75)"/><path class="cls-24" d="M292.71,277.89l-1.78,1a.2.2,0,0,0-.11.18.21.21,0,0,0,.1.18c.84.48.92.55,1.78,1.05a.51.51,0,0,0,.52,0l1.78-1a.22.22,0,0,0,.1-.18.18.18,0,0,0-.1-.18c-.82-.49-.91-.55-1.77-1.05A.49.49,0,0,0,292.71,277.89Z" transform="translate(-50.56 -65.75)"/><path class="cls-25" d="M292.71,277.63c-.59.34-1.18.68-1.78,1a.21.21,0,0,0-.11.19.22.22,0,0,0,.1.18c.84.48.94.52,1.8,1a.51.51,0,0,0,.52,0l1.78-1a.21.21,0,0,0,0-.36c-.83-.49-.94-.54-1.8-1A.53.53,0,0,0,292.71,277.63Z" transform="translate(-50.56 -65.75)"/><path class="cls-24" d="M290.23,279.3l-1.78,1a.2.2,0,0,0-.11.18.21.21,0,0,0,.1.18c.84.48.92.55,1.78,1.05a.53.53,0,0,0,.52,0c.59-.34,1.18-.68,1.78-1a.22.22,0,0,0,.1-.18.19.19,0,0,0-.1-.19l-1.77-1A.49.49,0,0,0,290.23,279.3Z" transform="translate(-50.56 -65.75)"/><path class="cls-25" d="M290.23,279c-.59.34-1.18.68-1.78,1a.21.21,0,0,0-.11.18.23.23,0,0,0,.1.19c.84.47.94.52,1.8,1a.49.49,0,0,0,.52,0l1.78-1a.21.21,0,0,0,.11-.18.23.23,0,0,0-.1-.19l-1.8-1A.53.53,0,0,0,290.23,279Z" transform="translate(-50.56 -65.75)"/><path class="cls-24" d="M287.75,280.7l-1.78,1a.19.19,0,0,0-.11.18.22.22,0,0,0,.1.18c.84.48.92.54,1.78,1a.51.51,0,0,0,.52,0l1.78-1a.2.2,0,0,0,.1-.18.18.18,0,0,0-.1-.18c-.82-.48-.91-.55-1.77-1.05A.53.53,0,0,0,287.75,280.7Z" transform="translate(-50.56 -65.75)"/><path class="cls-25" d="M287.75,280.45l-1.78,1a.2.2,0,0,0-.11.18.21.21,0,0,0,.1.18c.84.48,1,.53,1.8,1a.49.49,0,0,0,.52,0l1.78-1a.19.19,0,0,0,.11-.18.22.22,0,0,0-.1-.18l-1.8-1A.49.49,0,0,0,287.75,280.45Z" transform="translate(-50.56 -65.75)"/><path class="cls-24" d="M285.27,282.11c-.59.34-1.18.68-1.78,1a.21.21,0,0,0-.11.18.21.21,0,0,0,.11.19c.83.47.91.54,1.77,1a.49.49,0,0,0,.52,0l1.78-1a.25.25,0,0,0,.11-.18.2.2,0,0,0-.11-.18c-.82-.48-.91-.55-1.77-1.05A.53.53,0,0,0,285.27,282.11Z" transform="translate(-50.56 -65.75)"/><path class="cls-25" d="M285.27,281.86l-1.78,1a.2.2,0,0,0,0,.36c.83.48.94.53,1.79,1a.53.53,0,0,0,.52,0l1.78-1a.2.2,0,0,0,.11-.18.21.21,0,0,0-.1-.18l-1.8-1A.49.49,0,0,0,285.27,281.86Z" transform="translate(-50.56 -65.75)"/><path class="cls-24" d="M282.79,283.52l-1.78,1a.2.2,0,0,0,0,.36c.83.48.91.55,1.77,1.05a.51.51,0,0,0,.52,0l1.78-1a.25.25,0,0,0,.11-.18.2.2,0,0,0-.11-.18c-.82-.49-.91-.55-1.77-1.05A.49.49,0,0,0,282.79,283.52Z" transform="translate(-50.56 -65.75)"/><path class="cls-25" d="M282.79,283.27l-1.78,1a.19.19,0,0,0-.11.18.21.21,0,0,0,.11.18c.83.48.94.52,1.79,1a.51.51,0,0,0,.52,0l1.78-1a.2.2,0,0,0,.11-.18.21.21,0,0,0-.1-.18l-1.8-1A.51.51,0,0,0,282.79,283.27Z" transform="translate(-50.56 -65.75)"/><path class="cls-24" d="M280.31,284.93l-1.78,1a.2.2,0,0,0,0,.36c.83.48.91.55,1.77,1.05a.53.53,0,0,0,.52,0c.59-.34,1.18-.68,1.78-1a.23.23,0,0,0,.11-.18.21.21,0,0,0-.11-.19l-1.77-1A.49.49,0,0,0,280.31,284.93Z" transform="translate(-50.56 -65.75)"/><path class="cls-25" d="M280.31,284.67c-.59.34-1.18.68-1.78,1a.21.21,0,0,0-.11.18.21.21,0,0,0,.11.19c.83.48.94.52,1.79,1a.49.49,0,0,0,.52,0l1.78-1a.21.21,0,0,0,.11-.18.23.23,0,0,0-.1-.19l-1.8-1A.53.53,0,0,0,280.31,284.67Z" transform="translate(-50.56 -65.75)"/><path class="cls-24" d="M320,265.25l-1.78,1a.2.2,0,0,0-.11.18.21.21,0,0,0,.1.18l1.78,1.05a.49.49,0,0,0,.52,0l1.77-1a.2.2,0,0,0,.11-.18.19.19,0,0,0-.1-.18c-.83-.49-.91-.55-1.77-1.05A.53.53,0,0,0,320,265.25Z" transform="translate(-50.56 -65.75)"/><path class="cls-25" d="M320,265l-1.78,1a.19.19,0,0,0-.11.18.22.22,0,0,0,.1.18c.83.48.94.52,1.8,1a.53.53,0,0,0,.52,0l1.78-1a.21.21,0,0,0,.1-.18.17.17,0,0,0-.1-.18l-1.79-1A.49.49,0,0,0,320,265Z" transform="translate(-50.56 -65.75)"/><path class="cls-24" d="M317.51,266.66l-1.78,1a.2.2,0,0,0-.11.18.21.21,0,0,0,.1.18l1.78,1.05a.53.53,0,0,0,.52,0l1.77-1a.21.21,0,0,0,.11-.18.21.21,0,0,0-.1-.19l-1.77-1A.49.49,0,0,0,317.51,266.66Z" transform="translate(-50.56 -65.75)"/><path class="cls-25" d="M317.51,266.4l-1.78,1a.21.21,0,0,0-.11.18.23.23,0,0,0,.1.19c.83.48.94.52,1.8,1a.49.49,0,0,0,.52,0l1.78-1a.22.22,0,0,0,.1-.18.17.17,0,0,0-.1-.18c-.82-.49-.93-.54-1.79-1A.53.53,0,0,0,317.51,266.4Z" transform="translate(-50.56 -65.75)"/><path class="cls-24" d="M315,268.06l-1.78,1a.19.19,0,0,0-.11.18.22.22,0,0,0,.1.18l1.78,1a.51.51,0,0,0,.52,0l1.77-1a.19.19,0,0,0,.11-.18.2.2,0,0,0-.1-.18c-.82-.48-.91-.55-1.77-1.05A.53.53,0,0,0,315,268.06Z" transform="translate(-50.56 -65.75)"/><path class="cls-25" d="M315,267.81l-1.78,1a.21.21,0,0,0,0,.36l1.8,1a.49.49,0,0,0,.52,0l1.78-1a.23.23,0,0,0,.11-.18.21.21,0,0,0-.11-.18l-1.79-1A.53.53,0,0,0,315,267.81Z" transform="translate(-50.56 -65.75)"/><path class="cls-24" d="M312.55,269.47l-1.78,1a.21.21,0,0,0-.11.18.23.23,0,0,0,.1.19l1.78,1a.49.49,0,0,0,.52,0l1.78-1a.21.21,0,0,0,.1-.18.19.19,0,0,0-.1-.18c-.82-.48-.91-.55-1.77-1A.53.53,0,0,0,312.55,269.47Z" transform="translate(-50.56 -65.75)"/><path class="cls-25" d="M312.55,269.22l-1.78,1a.2.2,0,0,0-.11.18.21.21,0,0,0,.1.18l1.8,1a.53.53,0,0,0,.52,0l1.78-1a.25.25,0,0,0,.11-.18.21.21,0,0,0-.11-.18l-1.79-1A.49.49,0,0,0,312.55,269.22Z" transform="translate(-50.56 -65.75)"/><path class="cls-24" d="M310.07,270.88l-1.78,1a.21.21,0,0,0,0,.36l1.78,1.05a.49.49,0,0,0,.52,0l1.78-1a.21.21,0,0,0,.1-.18.19.19,0,0,0-.1-.18c-.82-.49-.91-.55-1.77-1.05A.53.53,0,0,0,310.07,270.88Z" transform="translate(-50.56 -65.75)"/><path class="cls-25" d="M310.07,270.63l-1.78,1a.19.19,0,0,0-.11.18.22.22,0,0,0,.1.18l1.8,1a.53.53,0,0,0,.52,0l1.78-1a.22.22,0,0,0,.11-.18.2.2,0,0,0-.11-.18l-1.79-1A.49.49,0,0,0,310.07,270.63Z" transform="translate(-50.56 -65.75)"/><path class="cls-24" d="M307.59,272.29l-1.78,1a.2.2,0,0,0-.11.18.21.21,0,0,0,.1.18l1.78,1a.53.53,0,0,0,.52,0c.59-.34,1.18-.68,1.78-1a.22.22,0,0,0,.1-.18.18.18,0,0,0-.1-.18c-.82-.49-.91-.55-1.77-1A.49.49,0,0,0,307.59,272.29Z" transform="translate(-50.56 -65.75)"/><path class="cls-25" d="M307.59,272c-.59.34-1.18.68-1.78,1a.21.21,0,0,0-.11.19.22.22,0,0,0,.1.18c.83.48.94.52,1.8,1a.51.51,0,0,0,.52,0l1.78-1a.23.23,0,0,0,.11-.18.19.19,0,0,0-.11-.18c-.82-.49-.93-.54-1.79-1A.53.53,0,0,0,307.59,272Z" transform="translate(-50.56 -65.75)"/><path class="cls-24" d="M305.11,273.7l-1.78,1a.19.19,0,0,0-.11.18.22.22,0,0,0,.1.18l1.78,1a.51.51,0,0,0,.52,0l1.78-1a.2.2,0,0,0,.1-.18.2.2,0,0,0-.1-.18c-.82-.48-.91-.55-1.77-1A.49.49,0,0,0,305.11,273.7Z" transform="translate(-50.56 -65.75)"/><path class="cls-25" d="M305.11,273.44l-1.78,1a.21.21,0,0,0-.11.18.2.2,0,0,0,.1.18l1.8,1a.49.49,0,0,0,.52,0c.6-.33,1.19-.67,1.78-1a.21.21,0,0,0,.11-.18.21.21,0,0,0-.11-.18l-1.79-1A.53.53,0,0,0,305.11,273.44Z" transform="translate(-50.56 -65.75)"/><path class="cls-24" d="M302.63,275.1c-.59.34-1.18.68-1.78,1a.21.21,0,0,0-.11.18.23.23,0,0,0,.1.19c.84.48.92.54,1.78,1a.49.49,0,0,0,.52,0l1.78-1a.21.21,0,0,0,.1-.18.2.2,0,0,0-.1-.18c-.82-.48-.91-.55-1.77-1A.53.53,0,0,0,302.63,275.1Z" transform="translate(-50.56 -65.75)"/><path class="cls-25" d="M302.63,274.85l-1.78,1a.2.2,0,0,0-.11.18.21.21,0,0,0,.1.18l1.8,1a.53.53,0,0,0,.52,0l1.78-1a.2.2,0,0,0,.11-.18.21.21,0,0,0-.11-.18l-1.79-1A.49.49,0,0,0,302.63,274.85Z" transform="translate(-50.56 -65.75)"/><path class="cls-24" d="M300.15,276.51l-1.78,1a.21.21,0,0,0-.11.18.2.2,0,0,0,.1.18c.84.48.92.55,1.78,1.05a.49.49,0,0,0,.52,0l1.78-1a.21.21,0,0,0,.1-.18.17.17,0,0,0-.1-.18c-.82-.48-.91-.55-1.77-1.05A.53.53,0,0,0,300.15,276.51Z" transform="translate(-50.56 -65.75)"/><path class="cls-25" d="M300.15,276.26l-1.78,1a.19.19,0,0,0-.11.18.22.22,0,0,0,.1.18l1.8,1a.53.53,0,0,0,.52,0l1.78-1a.2.2,0,0,0,0-.36l-1.79-1A.49.49,0,0,0,300.15,276.26Z" transform="translate(-50.56 -65.75)"/><path class="cls-24" d="M297.67,277.92l-1.78,1a.2.2,0,0,0-.11.18.21.21,0,0,0,.1.18c.84.48.92.55,1.78,1a.53.53,0,0,0,.52,0l1.78-1a.22.22,0,0,0,.1-.18.17.17,0,0,0-.1-.18c-.82-.49-.91-.55-1.77-1.05A.49.49,0,0,0,297.67,277.92Z" transform="translate(-50.56 -65.75)"/><path class="cls-25" d="M297.67,277.66c-.59.34-1.18.68-1.78,1a.21.21,0,0,0-.11.19.22.22,0,0,0,.1.18c.84.48.94.52,1.8,1a.51.51,0,0,0,.52,0l1.78-1a.21.21,0,0,0,.11-.18.2.2,0,0,0-.1-.18c-.83-.49-.94-.54-1.8-1A.53.53,0,0,0,297.67,277.66Z" transform="translate(-50.56 -65.75)"/><path class="cls-24" d="M295.19,279.33l-1.78,1a.19.19,0,0,0-.11.18.22.22,0,0,0,.1.18c.84.48.92.55,1.78,1.05a.53.53,0,0,0,.52,0c.59-.34,1.18-.68,1.78-1a.23.23,0,0,0,.1-.19.18.18,0,0,0-.1-.18c-.82-.48-.91-.55-1.77-1A.49.49,0,0,0,295.19,279.33Z" transform="translate(-50.56 -65.75)"/><path class="cls-25" d="M295.19,279.07c-.59.34-1.18.68-1.78,1a.21.21,0,0,0-.11.18.2.2,0,0,0,.1.18c.84.48,1,.53,1.8,1a.49.49,0,0,0,.52,0l1.78-1a.21.21,0,0,0,.11-.18.23.23,0,0,0-.1-.19l-1.8-1A.53.53,0,0,0,295.19,279.07Z" transform="translate(-50.56 -65.75)"/><path class="cls-24" d="M292.71,280.73c-.59.34-1.18.68-1.78,1a.21.21,0,0,0-.11.19.21.21,0,0,0,.11.18l1.77,1a.49.49,0,0,0,.52,0l1.78-1a.21.21,0,0,0,.1-.18.18.18,0,0,0-.1-.18c-.82-.48-.91-.55-1.77-1A.53.53,0,0,0,292.71,280.73Z" transform="translate(-50.56 -65.75)"/><path class="cls-25" d="M292.71,280.48l-1.78,1a.2.2,0,0,0,0,.36c.83.48.94.53,1.79,1a.49.49,0,0,0,.52,0l1.78-1a.19.19,0,0,0,.11-.18.22.22,0,0,0-.1-.18l-1.8-1A.49.49,0,0,0,292.71,280.48Z" transform="translate(-50.56 -65.75)"/><path class="cls-24" d="M290.23,282.14c-.59.34-1.18.68-1.78,1a.21.21,0,0,0-.11.18.19.19,0,0,0,.11.18c.83.48.91.55,1.77,1.05a.49.49,0,0,0,.52,0l1.78-1a.22.22,0,0,0,.11-.18.2.2,0,0,0-.11-.18c-.82-.48-.91-.55-1.77-1.05A.53.53,0,0,0,290.23,282.14Z" transform="translate(-50.56 -65.75)"/><path class="cls-25" d="M290.23,281.89l-1.78,1a.2.2,0,0,0,0,.36c.83.48.94.53,1.79,1a.53.53,0,0,0,.52,0l1.78-1a.2.2,0,0,0,.11-.18.21.21,0,0,0-.1-.18l-1.8-1A.49.49,0,0,0,290.23,281.89Z" transform="translate(-50.56 -65.75)"/><path class="cls-24" d="M287.75,283.55l-1.78,1a.2.2,0,0,0,0,.36c.83.48.91.55,1.77,1.05a.51.51,0,0,0,.52,0l1.78-1a.23.23,0,0,0,.11-.18.19.19,0,0,0-.11-.18c-.82-.49-.91-.55-1.77-1.05A.49.49,0,0,0,287.75,283.55Z" transform="translate(-50.56 -65.75)"/><path class="cls-25" d="M287.75,283.29c-.59.34-1.18.68-1.78,1a.21.21,0,0,0-.11.19.21.21,0,0,0,.11.18c.83.48.94.52,1.79,1a.51.51,0,0,0,.52,0l1.78-1a.21.21,0,0,0,0-.36c-.83-.49-.94-.54-1.8-1A.53.53,0,0,0,287.75,283.29Z" transform="translate(-50.56 -65.75)"/><path class="cls-24" d="M285.27,285l-1.78,1a.2.2,0,0,0-.11.18.21.21,0,0,0,.11.18c.83.48.91.55,1.77,1.05a.53.53,0,0,0,.52,0c.59-.34,1.18-.68,1.78-1a.24.24,0,0,0,.11-.19.21.21,0,0,0-.11-.18c-.82-.48-.91-.55-1.77-1A.49.49,0,0,0,285.27,285Z" transform="translate(-50.56 -65.75)"/><path class="cls-25" d="M285.27,284.7c-.59.34-1.18.68-1.78,1a.21.21,0,0,0-.11.18.21.21,0,0,0,.11.19c.83.47.94.52,1.79,1a.49.49,0,0,0,.52,0l1.78-1a.21.21,0,0,0,.11-.18.23.23,0,0,0-.1-.19l-1.8-1A.53.53,0,0,0,285.27,284.7Z" transform="translate(-50.56 -65.75)"/><path class="cls-24" d="M282.79,286.36c-.59.34-1.18.68-1.78,1a.24.24,0,0,0-.11.19.21.21,0,0,0,.11.18l1.77,1a.51.51,0,0,0,.52,0l1.78-1a.19.19,0,0,0,.11-.18.21.21,0,0,0-.11-.18c-.82-.48-.91-.55-1.77-1.05A.53.53,0,0,0,282.79,286.36Z" transform="translate(-50.56 -65.75)"/><path class="cls-25" d="M282.79,286.11l-1.78,1a.2.2,0,0,0,0,.36c.83.48.94.53,1.79,1a.49.49,0,0,0,.52,0l1.78-1a.19.19,0,0,0,.11-.18.22.22,0,0,0-.1-.18l-1.8-1A.49.49,0,0,0,282.79,286.11Z" transform="translate(-50.56 -65.75)"/><path class="cls-24" d="M322.47,266.69l-1.78,1a.2.2,0,0,0-.11.18.21.21,0,0,0,.1.18l1.78,1.05a.53.53,0,0,0,.52,0c.59-.34,1.18-.68,1.78-1a.22.22,0,0,0,.1-.18.21.21,0,0,0-.1-.19l-1.77-1A.49.49,0,0,0,322.47,266.69Z" transform="translate(-50.56 -65.75)"/><path class="cls-25" d="M322.47,266.43l-1.78,1a.21.21,0,0,0-.11.18.23.23,0,0,0,.1.19c.83.47.94.52,1.8,1a.49.49,0,0,0,.52,0l1.78-1a.27.27,0,0,0,.11-.18.21.21,0,0,0-.11-.19l-1.79-1A.53.53,0,0,0,322.47,266.43Z" transform="translate(-50.56 -65.75)"/><path class="cls-24" d="M320,268.09c-.59.34-1.18.68-1.78,1a.21.21,0,0,0-.11.19.22.22,0,0,0,.1.18l1.78,1a.51.51,0,0,0,.52,0l1.78-1a.2.2,0,0,0,.1-.18.2.2,0,0,0-.1-.18c-.82-.48-.91-.55-1.77-1.05A.53.53,0,0,0,320,268.09Z" transform="translate(-50.56 -65.75)"/><path class="cls-25" d="M320,267.84l-1.78,1a.2.2,0,0,0-.11.18.21.21,0,0,0,.1.18l1.8,1a.49.49,0,0,0,.52,0l1.78-1a.23.23,0,0,0,.11-.18.21.21,0,0,0-.11-.18l-1.79-1A.49.49,0,0,0,320,267.84Z" transform="translate(-50.56 -65.75)"/><path class="cls-24" d="M317.51,269.5c-.59.34-1.18.68-1.78,1a.21.21,0,0,0-.11.18.23.23,0,0,0,.1.19c.83.47.92.54,1.78,1a.49.49,0,0,0,.52,0l1.78-1a.21.21,0,0,0,.1-.18.19.19,0,0,0-.1-.18c-.82-.48-.91-.55-1.77-1.05A.53.53,0,0,0,317.51,269.5Z" transform="translate(-50.56 -65.75)"/><path class="cls-25" d="M317.51,269.25l-1.78,1a.2.2,0,0,0-.11.18.21.21,0,0,0,.1.18l1.8,1a.53.53,0,0,0,.52,0l1.78-1a.22.22,0,0,0,.11-.18.2.2,0,0,0-.11-.18l-1.79-1A.49.49,0,0,0,317.51,269.25Z" transform="translate(-50.56 -65.75)"/><path class="cls-24" d="M315,270.91l-1.78,1a.2.2,0,0,0-.11.18.21.21,0,0,0,.1.18c.84.48.92.55,1.78,1.05a.51.51,0,0,0,.52,0l1.78-1a.22.22,0,0,0,.1-.18.19.19,0,0,0-.1-.18c-.82-.49-.91-.55-1.77-1A.49.49,0,0,0,315,270.91Z" transform="translate(-50.56 -65.75)"/><path class="cls-25" d="M315,270.66l-1.78,1a.19.19,0,0,0-.11.18.22.22,0,0,0,.1.18c.83.48.94.52,1.8,1a.51.51,0,0,0,.52,0l1.78-1a.2.2,0,0,0,0-.36c-.82-.49-.93-.54-1.79-1A.51.51,0,0,0,315,270.66Z" transform="translate(-50.56 -65.75)"/><path class="cls-24" d="M312.55,272.32l-1.78,1a.2.2,0,0,0-.11.18.21.21,0,0,0,.1.18c.84.48.92.55,1.78,1.05a.53.53,0,0,0,.52,0c.59-.34,1.18-.68,1.78-1a.22.22,0,0,0,.1-.18.21.21,0,0,0-.1-.19l-1.77-1A.49.49,0,0,0,312.55,272.32Z" transform="translate(-50.56 -65.75)"/><path class="cls-25" d="M312.55,272.06c-.59.34-1.18.68-1.78,1a.21.21,0,0,0-.11.18.23.23,0,0,0,.1.19c.83.48.94.52,1.8,1a.49.49,0,0,0,.52,0l1.78-1a.21.21,0,0,0,.11-.18.21.21,0,0,0-.11-.19l-1.79-1A.53.53,0,0,0,312.55,272.06Z" transform="translate(-50.56 -65.75)"/><path class="cls-24" d="M310.07,273.73l-1.78,1a.19.19,0,0,0-.11.18.22.22,0,0,0,.1.18c.84.48.92.54,1.78,1a.51.51,0,0,0,.52,0l1.78-1a.2.2,0,0,0,.1-.18.18.18,0,0,0-.1-.18c-.82-.48-.91-.55-1.77-1A.51.51,0,0,0,310.07,273.73Z" transform="translate(-50.56 -65.75)"/><path class="cls-25" d="M310.07,273.47l-1.78,1a.21.21,0,0,0,0,.36l1.8,1a.49.49,0,0,0,.52,0l1.78-1a.19.19,0,0,0,.11-.18.21.21,0,0,0-.11-.18l-1.79-1A.53.53,0,0,0,310.07,273.47Z" transform="translate(-50.56 -65.75)"/><path class="cls-24" d="M307.59,275.13c-.59.34-1.18.68-1.78,1a.21.21,0,0,0-.11.18.23.23,0,0,0,.1.19c.84.48.92.54,1.78,1a.49.49,0,0,0,.52,0l1.78-1a.21.21,0,0,0,.1-.18.17.17,0,0,0-.1-.18c-.82-.48-.91-.55-1.77-1.05A.53.53,0,0,0,307.59,275.13Z" transform="translate(-50.56 -65.75)"/><path class="cls-25" d="M307.59,274.88l-1.78,1a.2.2,0,0,0-.11.18.21.21,0,0,0,.1.18c.84.48.95.53,1.8,1a.53.53,0,0,0,.52,0l1.78-1a.2.2,0,0,0,.11-.18.21.21,0,0,0-.1-.18l-1.8-1A.49.49,0,0,0,307.59,274.88Z" transform="translate(-50.56 -65.75)"/><path class="cls-24" d="M305.11,276.54l-1.78,1a.2.2,0,0,0-.11.18.19.19,0,0,0,.11.18c.83.48.91.55,1.77,1a.49.49,0,0,0,.52,0l1.78-1a.21.21,0,0,0,.1-.18.17.17,0,0,0-.1-.18c-.82-.49-.91-.55-1.77-1A.49.49,0,0,0,305.11,276.54Z" transform="translate(-50.56 -65.75)"/><path class="cls-25" d="M305.11,276.29l-1.78,1a.19.19,0,0,0-.11.18.22.22,0,0,0,.1.18c.84.48.95.53,1.8,1a.53.53,0,0,0,.52,0l1.78-1a.2.2,0,0,0,.11-.18.21.21,0,0,0-.1-.18l-1.8-1A.49.49,0,0,0,305.11,276.29Z" transform="translate(-50.56 -65.75)"/><path class="cls-24" d="M302.63,278l-1.78,1a.2.2,0,0,0,0,.36c.83.48.91.55,1.77,1.05a.53.53,0,0,0,.52,0c.59-.34,1.18-.68,1.78-1a.27.27,0,0,0,.11-.18.19.19,0,0,0-.11-.18c-.82-.49-.91-.55-1.77-1.05A.49.49,0,0,0,302.63,278Z" transform="translate(-50.56 -65.75)"/><path class="cls-25" d="M302.63,277.69c-.59.34-1.18.68-1.78,1a.21.21,0,0,0-.11.18.21.21,0,0,0,.11.19c.83.48.94.52,1.79,1a.49.49,0,0,0,.52,0l1.78-1a.21.21,0,0,0,.11-.18.2.2,0,0,0-.1-.18c-.83-.49-.94-.54-1.8-1A.53.53,0,0,0,302.63,277.69Z" transform="translate(-50.56 -65.75)"/><path class="cls-24" d="M300.15,279.36l-1.78,1a.19.19,0,0,0-.11.18.21.21,0,0,0,.11.18l1.77,1a.51.51,0,0,0,.52,0l1.78-1a.23.23,0,0,0,.11-.18.21.21,0,0,0-.11-.18c-.82-.48-.91-.55-1.77-1A.49.49,0,0,0,300.15,279.36Z" transform="translate(-50.56 -65.75)"/><path class="cls-25" d="M300.15,279.1l-1.78,1a.21.21,0,0,0-.11.18.19.19,0,0,0,.11.18c.83.48.94.53,1.79,1a.49.49,0,0,0,.52,0l1.78-1a.21.21,0,0,0,.11-.19.22.22,0,0,0-.1-.18l-1.8-1A.53.53,0,0,0,300.15,279.1Z" transform="translate(-50.56 -65.75)"/><path class="cls-24" d="M297.67,280.76c-.59.34-1.18.68-1.78,1a.21.21,0,0,0-.11.18.21.21,0,0,0,.11.19l1.77,1a.49.49,0,0,0,.52,0l1.78-1a.22.22,0,0,0,.11-.18.2.2,0,0,0-.11-.18c-.82-.48-.91-.55-1.77-1.05A.53.53,0,0,0,297.67,280.76Z" transform="translate(-50.56 -65.75)"/><path class="cls-25" d="M297.67,280.51l-1.78,1a.2.2,0,0,0,0,.36c.83.48.94.53,1.79,1a.53.53,0,0,0,.52,0l1.78-1a.2.2,0,0,0,.11-.18.22.22,0,0,0-.1-.18l-1.8-1A.49.49,0,0,0,297.67,280.51Z" transform="translate(-50.56 -65.75)"/><path class="cls-24" d="M295.19,282.17l-1.78,1a.2.2,0,0,0-.11.18.19.19,0,0,0,.11.18c.83.48.91.55,1.77,1a.49.49,0,0,0,.52,0l1.78-1a.22.22,0,0,0,.11-.18.2.2,0,0,0-.11-.18c-.82-.48-.91-.55-1.77-1.05A.53.53,0,0,0,295.19,282.17Z" transform="translate(-50.56 -65.75)"/><path class="cls-25" d="M295.19,281.92l-1.78,1a.19.19,0,0,0-.11.18.21.21,0,0,0,.11.18c.83.48.94.53,1.79,1a.53.53,0,0,0,.52,0l1.78-1a.2.2,0,0,0,.11-.18.21.21,0,0,0-.1-.18l-1.8-1A.49.49,0,0,0,295.19,281.92Z" transform="translate(-50.56 -65.75)"/><path class="cls-24" d="M292.71,283.58l-1.78,1a.2.2,0,0,0,0,.36c.83.48.91.55,1.77,1.05a.53.53,0,0,0,.52,0l1.78-1a.23.23,0,0,0,.11-.18.19.19,0,0,0-.11-.18c-.82-.49-.91-.55-1.77-1.05A.49.49,0,0,0,292.71,283.58Z" transform="translate(-50.56 -65.75)"/><path class="cls-25" d="M292.71,283.32c-.59.34-1.18.68-1.78,1a.21.21,0,0,0-.11.19.21.21,0,0,0,.11.18c.83.48.94.52,1.79,1a.51.51,0,0,0,.52,0l1.78-1a.21.21,0,0,0,.11-.18.2.2,0,0,0-.1-.18c-.83-.49-.94-.54-1.8-1A.53.53,0,0,0,292.71,283.32Z" transform="translate(-50.56 -65.75)"/><path class="cls-24" d="M290.23,285l-1.78,1a.21.21,0,0,0-.11.18.21.21,0,0,0,.11.18c.83.48.91.54,1.77,1.05a.53.53,0,0,0,.52,0l1.78-1a.21.21,0,0,0,.11-.19.21.21,0,0,0-.11-.18c-.82-.48-.9-.55-1.77-1A.49.49,0,0,0,290.23,285Z" transform="translate(-50.56 -65.75)"/><path class="cls-25" d="M290.23,284.73c-.59.34-1.18.68-1.78,1a.23.23,0,0,0-.11.18.19.19,0,0,0,.11.18c.83.48.94.53,1.79,1a.49.49,0,0,0,.52,0l1.78-1a.21.21,0,0,0,.11-.19.22.22,0,0,0-.1-.18l-1.8-1A.53.53,0,0,0,290.23,284.73Z" transform="translate(-50.56 -65.75)"/><path class="cls-24" d="M287.75,286.39c-.59.34-1.18.68-1.78,1a.23.23,0,0,0-.11.18.21.21,0,0,0,.11.19l1.77,1a.49.49,0,0,0,.52,0l1.78-1a.2.2,0,0,0,.11-.18.22.22,0,0,0-.1-.18c-.83-.48-.91-.55-1.78-1.05A.53.53,0,0,0,287.75,286.39Z" transform="translate(-50.56 -65.75)"/><path class="cls-25" d="M287.75,286.14l-1.78,1a.22.22,0,0,0-.11.18.2.2,0,0,0,.11.18c.83.48.94.53,1.79,1a.53.53,0,0,0,.52,0l1.78-1a.19.19,0,0,0,.11-.18.22.22,0,0,0-.1-.18l-1.8-1A.49.49,0,0,0,287.75,286.14Z" transform="translate(-50.56 -65.75)"/><path class="cls-24" d="M285.27,287.8l-1.78,1a.27.27,0,0,0-.11.18.19.19,0,0,0,.11.18c.83.48.91.55,1.77,1.05a.49.49,0,0,0,.52,0l1.78-1a.2.2,0,0,0,.11-.18.21.21,0,0,0-.1-.18c-.83-.48-.91-.55-1.78-1.05A.53.53,0,0,0,285.27,287.8Z" transform="translate(-50.56 -65.75)"/><path class="cls-25" d="M285.27,287.55l-1.78,1a.21.21,0,0,0-.11.18.2.2,0,0,0,.11.18c.83.48.94.53,1.79,1a.53.53,0,0,0,.52,0l1.78-1a.2.2,0,0,0,.11-.18.21.21,0,0,0-.1-.18l-1.8-1A.49.49,0,0,0,285.27,287.55Z" transform="translate(-50.56 -65.75)"/><path class="cls-24" d="M325,268.12c-.59.34-1.18.68-1.78,1a.21.21,0,0,0-.11.19.22.22,0,0,0,.1.18c.84.48.92.54,1.78,1a.49.49,0,0,0,.52,0l1.78-1a.2.2,0,0,0,.1-.18.2.2,0,0,0-.1-.18c-.82-.48-.91-.55-1.77-1.05A.53.53,0,0,0,325,268.12Z" transform="translate(-50.56 -65.75)"/><path class="cls-25" d="M325,267.87l-1.78,1a.2.2,0,0,0-.11.18.21.21,0,0,0,.1.18l1.8,1a.51.51,0,0,0,.52,0l1.78-1a.19.19,0,0,0,.11-.18.21.21,0,0,0-.11-.18l-1.79-1A.49.49,0,0,0,325,267.87Z" transform="translate(-50.56 -65.75)"/><path class="cls-24" d="M322.47,269.53l-1.78,1a.21.21,0,0,0-.11.18.2.2,0,0,0,.1.18l1.78,1.05a.49.49,0,0,0,.52,0l1.78-1a.21.21,0,0,0,.1-.18.19.19,0,0,0-.1-.18c-.82-.48-.91-.55-1.77-1.05A.53.53,0,0,0,322.47,269.53Z" transform="translate(-50.56 -65.75)"/><path class="cls-25" d="M322.47,269.28l-1.78,1a.2.2,0,0,0-.11.18.21.21,0,0,0,.1.18l1.8,1a.53.53,0,0,0,.52,0l1.78-1a.22.22,0,0,0,.11-.18.2.2,0,0,0-.11-.18l-1.79-1A.49.49,0,0,0,322.47,269.28Z" transform="translate(-50.56 -65.75)"/><path class="cls-24" d="M320,270.94l-1.78,1a.2.2,0,0,0-.11.18.21.21,0,0,0,.1.18c.84.48.92.55,1.78,1.05a.53.53,0,0,0,.52,0l1.78-1a.22.22,0,0,0,.1-.18.18.18,0,0,0-.1-.18c-.82-.49-.91-.55-1.77-1.05A.49.49,0,0,0,320,270.94Z" transform="translate(-50.56 -65.75)"/><path class="cls-25" d="M320,270.68c-.59.34-1.18.68-1.78,1a.21.21,0,0,0-.11.19.22.22,0,0,0,.1.18c.84.48.94.52,1.8,1a.51.51,0,0,0,.52,0l1.78-1a.21.21,0,0,0,.11-.18.2.2,0,0,0-.11-.18c-.82-.49-.93-.54-1.79-1A.53.53,0,0,0,320,270.68Z" transform="translate(-50.56 -65.75)"/><path class="cls-24" d="M317.51,272.35l-1.78,1a.2.2,0,0,0-.11.18.21.21,0,0,0,.1.18c.84.48.92.55,1.78,1a.53.53,0,0,0,.52,0c.59-.34,1.18-.68,1.78-1a.23.23,0,0,0,.1-.19.18.18,0,0,0-.1-.18l-1.77-1A.49.49,0,0,0,317.51,272.35Z" transform="translate(-50.56 -65.75)"/><path class="cls-25" d="M317.51,272.09c-.59.34-1.18.68-1.78,1a.21.21,0,0,0-.11.18.23.23,0,0,0,.1.19c.84.47.94.52,1.8,1a.49.49,0,0,0,.52,0l1.78-1a.21.21,0,0,0,.11-.18.23.23,0,0,0-.1-.19l-1.8-1A.53.53,0,0,0,317.51,272.09Z" transform="translate(-50.56 -65.75)"/><path class="cls-24" d="M315,273.75c-.59.34-1.18.68-1.78,1a.21.21,0,0,0-.11.19.22.22,0,0,0,.1.18c.84.48.92.54,1.78,1a.51.51,0,0,0,.52,0l1.78-1a.2.2,0,0,0,.1-.18.18.18,0,0,0-.1-.18c-.82-.48-.91-.55-1.77-1.05A.53.53,0,0,0,315,273.75Z" transform="translate(-50.56 -65.75)"/><path class="cls-25" d="M315,273.5l-1.78,1a.2.2,0,0,0-.11.18.21.21,0,0,0,.1.18l1.8,1a.49.49,0,0,0,.52,0l1.78-1a.19.19,0,0,0,.11-.18.22.22,0,0,0-.1-.18l-1.8-1A.49.49,0,0,0,315,273.5Z" transform="translate(-50.56 -65.75)"/><path class="cls-24" d="M312.55,275.16c-.59.34-1.18.68-1.78,1a.21.21,0,0,0-.11.18.21.21,0,0,0,.11.19c.83.47.91.54,1.77,1a.49.49,0,0,0,.52,0l1.78-1a.21.21,0,0,0,.1-.18.17.17,0,0,0-.1-.18c-.82-.48-.91-.55-1.77-1A.53.53,0,0,0,312.55,275.16Z" transform="translate(-50.56 -65.75)"/><path class="cls-25" d="M312.55,274.91l-1.78,1a.2.2,0,0,0,0,.36c.83.48.94.53,1.79,1a.53.53,0,0,0,.52,0l1.78-1a.2.2,0,0,0,.11-.18.21.21,0,0,0-.1-.18l-1.8-1A.49.49,0,0,0,312.55,274.91Z" transform="translate(-50.56 -65.75)"/><path class="cls-24" d="M310.07,276.57l-1.78,1a.2.2,0,0,0,0,.36c.83.48.91.55,1.77,1.05a.51.51,0,0,0,.52,0l1.78-1a.27.27,0,0,0,.11-.18.2.2,0,0,0-.11-.18c-.82-.49-.91-.55-1.77-1.05A.49.49,0,0,0,310.07,276.57Z" transform="translate(-50.56 -65.75)"/><path class="cls-25" d="M310.07,276.31c-.59.34-1.18.68-1.78,1a.21.21,0,0,0-.11.19.21.21,0,0,0,.11.18c.83.48.94.52,1.79,1a.51.51,0,0,0,.52,0l1.78-1a.21.21,0,0,0,0-.36c-.83-.49-.94-.54-1.8-1A.53.53,0,0,0,310.07,276.31Z" transform="translate(-50.56 -65.75)"/><path class="cls-24" d="M307.59,278l-1.78,1a.2.2,0,0,0,0,.36c.83.48.91.55,1.77,1a.53.53,0,0,0,.52,0c.59-.34,1.18-.68,1.78-1a.23.23,0,0,0,.11-.18.21.21,0,0,0-.11-.19l-1.77-1A.49.49,0,0,0,307.59,278Z" transform="translate(-50.56 -65.75)"/><path class="cls-25" d="M307.59,277.72c-.59.34-1.18.68-1.78,1a.21.21,0,0,0-.11.18.21.21,0,0,0,.11.19c.83.47.94.52,1.79,1a.49.49,0,0,0,.52,0l1.78-1a.21.21,0,0,0,.11-.18.23.23,0,0,0-.1-.19l-1.8-1A.53.53,0,0,0,307.59,277.72Z" transform="translate(-50.56 -65.75)"/><path class="cls-24" d="M305.11,279.38l-1.78,1a.19.19,0,0,0-.11.18.21.21,0,0,0,.11.18l1.77,1a.51.51,0,0,0,.52,0l1.78-1a.21.21,0,0,0,.11-.18.21.21,0,0,0-.11-.18c-.82-.48-.91-.55-1.77-1.05A.53.53,0,0,0,305.11,279.38Z" transform="translate(-50.56 -65.75)"/><path class="cls-25" d="M305.11,279.13l-1.78,1a.2.2,0,0,0-.11.18.19.19,0,0,0,.11.18c.83.48.94.53,1.79,1a.49.49,0,0,0,.52,0l1.78-1a.19.19,0,0,0,.11-.18.22.22,0,0,0-.1-.18l-1.8-1A.49.49,0,0,0,305.11,279.13Z" transform="translate(-50.56 -65.75)"/><path class="cls-24" d="M302.63,280.79c-.59.34-1.18.68-1.78,1a.21.21,0,0,0-.11.18.21.21,0,0,0,.11.19c.83.47.91.54,1.77,1a.49.49,0,0,0,.52,0l1.78-1A.22.22,0,0,0,305,282a.2.2,0,0,0-.11-.18c-.82-.48-.91-.55-1.77-1A.53.53,0,0,0,302.63,280.79Z" transform="translate(-50.56 -65.75)"/><path class="cls-25" d="M302.63,280.54l-1.78,1a.2.2,0,0,0,0,.36c.83.48.94.53,1.79,1a.53.53,0,0,0,.52,0l1.78-1a.2.2,0,0,0,.11-.18.21.21,0,0,0-.1-.18l-1.8-1A.49.49,0,0,0,302.63,280.54Z" transform="translate(-50.56 -65.75)"/><path class="cls-24" d="M300.15,282.2l-1.78,1a.2.2,0,0,0,0,.36c.83.48.91.55,1.77,1.05a.49.49,0,0,0,.52,0l1.78-1a.2.2,0,0,0,0-.36c-.82-.49-.91-.55-1.77-1.05A.49.49,0,0,0,300.15,282.2Z" transform="translate(-50.56 -65.75)"/><path class="cls-25" d="M300.15,282l-1.78,1a.19.19,0,0,0-.11.18.21.21,0,0,0,.11.18c.83.48.94.52,1.79,1a.53.53,0,0,0,.52,0l1.78-1a.2.2,0,0,0,.11-.18.21.21,0,0,0-.1-.18l-1.8-1A.51.51,0,0,0,300.15,282Z" transform="translate(-50.56 -65.75)"/><path class="cls-24" d="M297.67,283.61l-1.78,1a.22.22,0,0,0-.11.18.2.2,0,0,0,.11.18c.83.48.91.55,1.77,1a.53.53,0,0,0,.52,0l1.78-1a.21.21,0,0,0,.11-.18.19.19,0,0,0-.11-.18c-.82-.49-.9-.55-1.77-1.05A.49.49,0,0,0,297.67,283.61Z" transform="translate(-50.56 -65.75)"/><path class="cls-25" d="M297.67,283.35c-.59.34-1.18.68-1.78,1a.21.21,0,0,0-.11.18.21.21,0,0,0,.11.19c.83.48.94.52,1.79,1a.49.49,0,0,0,.52,0l1.78-1a.21.21,0,0,0,.11-.18.2.2,0,0,0-.1-.18c-.83-.49-.94-.54-1.8-1A.53.53,0,0,0,297.67,283.35Z" transform="translate(-50.56 -65.75)"/><path class="cls-24" d="M295.19,285l-1.78,1a.21.21,0,0,0-.11.18.21.21,0,0,0,.11.18l1.77,1a.51.51,0,0,0,.52,0l1.78-1a.19.19,0,0,0,.11-.18.22.22,0,0,0-.1-.18c-.83-.48-.91-.55-1.78-1.05A.53.53,0,0,0,295.19,285Z" transform="translate(-50.56 -65.75)"/><path class="cls-25" d="M295.19,284.76l-1.78,1a.23.23,0,0,0-.11.18.19.19,0,0,0,.11.18c.83.48.94.53,1.79,1a.49.49,0,0,0,.52,0l1.78-1a.19.19,0,0,0,.11-.18.22.22,0,0,0-.1-.18l-1.8-1A.53.53,0,0,0,295.19,284.76Z" transform="translate(-50.56 -65.75)"/><path class="cls-24" d="M292.71,286.42c-.59.34-1.18.68-1.78,1a.27.27,0,0,0-.11.18.21.21,0,0,0,.11.19l1.77,1a.49.49,0,0,0,.52,0c.6-.33,1.19-.67,1.78-1a.2.2,0,0,0,.11-.18.21.21,0,0,0-.1-.18c-.83-.48-.91-.55-1.78-1.05A.53.53,0,0,0,292.71,286.42Z" transform="translate(-50.56 -65.75)"/><path class="cls-25" d="M292.71,286.17l-1.78,1a.22.22,0,0,0-.11.18.2.2,0,0,0,.11.18c.83.48.94.53,1.79,1a.55.55,0,0,0,.53,0l1.77-1a.2.2,0,0,0,.11-.18.22.22,0,0,0-.1-.18l-1.8-1A.49.49,0,0,0,292.71,286.17Z" transform="translate(-50.56 -65.75)"/><path class="cls-24" d="M290.23,287.83l-1.78,1a.21.21,0,0,0-.1.18.17.17,0,0,0,.1.18c.83.48.91.55,1.77,1.05a.49.49,0,0,0,.52,0l1.78-1a.2.2,0,0,0,.11-.18.21.21,0,0,0-.1-.18c-.83-.49-.91-.55-1.78-1.05A.53.53,0,0,0,290.23,287.83Z" transform="translate(-50.56 -65.75)"/><path class="cls-25" d="M290.23,287.58l-1.78,1a.23.23,0,0,0-.11.18.21.21,0,0,0,.11.18c.83.48.94.53,1.79,1a.55.55,0,0,0,.53,0l1.77-1a.2.2,0,0,0,.11-.18.21.21,0,0,0-.1-.18l-1.8-1A.49.49,0,0,0,290.23,287.58Z" transform="translate(-50.56 -65.75)"/><path class="cls-24" d="M287.75,289.24l-1.78,1a.21.21,0,0,0-.1.18.17.17,0,0,0,.1.18c.83.48.91.55,1.77,1.05a.53.53,0,0,0,.52,0l1.78-1a.21.21,0,0,0,.11-.18.2.2,0,0,0-.1-.18c-.83-.49-.91-.55-1.78-1.05A.49.49,0,0,0,287.75,289.24Z" transform="translate(-50.56 -65.75)"/><path class="cls-25" d="M287.75,289c-.59.34-1.18.68-1.78,1a.22.22,0,0,0-.1.18.19.19,0,0,0,.1.19c.83.48.94.52,1.79,1a.51.51,0,0,0,.53,0l1.77-1a.21.21,0,0,0,.11-.18.2.2,0,0,0-.1-.18c-.83-.49-.93-.54-1.8-1A.53.53,0,0,0,287.75,289Z" transform="translate(-50.56 -65.75)"/><path class="cls-24" d="M327.43,269.56l-1.78,1a.21.21,0,0,0-.11.18.2.2,0,0,0,.1.18c.84.48.92.55,1.78,1.05a.49.49,0,0,0,.52,0l1.78-1a.21.21,0,0,0,.1-.18.17.17,0,0,0-.1-.18c-.82-.48-.91-.55-1.77-1.05A.53.53,0,0,0,327.43,269.56Z" transform="translate(-50.56 -65.75)"/><path class="cls-25" d="M327.43,269.31l-1.78,1a.19.19,0,0,0-.11.18.22.22,0,0,0,.1.18l1.8,1a.53.53,0,0,0,.52,0l1.78-1a.2.2,0,0,0,.11-.18.21.21,0,0,0-.1-.18l-1.8-1A.49.49,0,0,0,327.43,269.31Z" transform="translate(-50.56 -65.75)"/><path class="cls-24" d="M325,271l-1.78,1a.2.2,0,0,0-.11.18.21.21,0,0,0,.1.18c.84.48.92.55,1.78,1.05a.53.53,0,0,0,.52,0c.59-.34,1.18-.68,1.78-1a.22.22,0,0,0,.1-.18.17.17,0,0,0-.1-.18c-.82-.49-.91-.55-1.77-1A.49.49,0,0,0,325,271Z" transform="translate(-50.56 -65.75)"/><path class="cls-25" d="M325,270.71c-.59.34-1.18.68-1.78,1a.21.21,0,0,0-.11.19.22.22,0,0,0,.1.18c.84.48.95.52,1.8,1a.51.51,0,0,0,.52,0l1.78-1a.21.21,0,0,0,.11-.18.2.2,0,0,0-.1-.18c-.83-.49-.94-.54-1.8-1A.53.53,0,0,0,325,270.71Z" transform="translate(-50.56 -65.75)"/><path class="cls-24" d="M322.47,272.38l-1.78,1a.19.19,0,0,0-.11.18.21.21,0,0,0,.11.18c.83.48.91.54,1.77,1.05a.53.53,0,0,0,.52,0l1.78-1a.2.2,0,0,0,.1-.18.18.18,0,0,0-.1-.18c-.82-.48-.91-.55-1.77-1A.49.49,0,0,0,322.47,272.38Z" transform="translate(-50.56 -65.75)"/><path class="cls-25" d="M322.47,272.12c-.59.34-1.18.68-1.78,1a.21.21,0,0,0-.11.18.2.2,0,0,0,.1.18c.84.48.95.53,1.8,1a.49.49,0,0,0,.52,0l1.78-1a.21.21,0,0,0,.11-.19.22.22,0,0,0-.1-.18l-1.8-1A.53.53,0,0,0,322.47,272.12Z" transform="translate(-50.56 -65.75)"/><path class="cls-24" d="M320,273.78c-.59.34-1.18.68-1.78,1a.21.21,0,0,0-.11.19.21.21,0,0,0,.11.18l1.77,1a.49.49,0,0,0,.52,0l1.78-1a.25.25,0,0,0,.11-.18.21.21,0,0,0-.11-.18c-.82-.48-.91-.55-1.77-1.05A.53.53,0,0,0,320,273.78Z" transform="translate(-50.56 -65.75)"/><path class="cls-25" d="M320,273.53l-1.78,1a.2.2,0,0,0,0,.36c.83.48.94.53,1.79,1a.53.53,0,0,0,.52,0l1.78-1a.19.19,0,0,0,.11-.18.22.22,0,0,0-.1-.18l-1.8-1A.49.49,0,0,0,320,273.53Z" transform="translate(-50.56 -65.75)"/><path class="cls-24" d="M317.51,275.19c-.59.34-18.54,10.53-19.14,10.86a.27.27,0,0,0-.11.19.21.21,0,0,0,.11.18l1.77,1a.51.51,0,0,0,.52,0L319.8,276.6a.25.25,0,0,0,.11-.18.2.2,0,0,0-.11-.18c-.82-.48-.91-.55-1.77-1.05A.53.53,0,0,0,317.51,275.19Z" transform="translate(-50.56 -65.75)"/><path class="cls-25" d="M317.51,274.94,298.37,285.8a.25.25,0,0,0-.11.18.2.2,0,0,0,.11.18c.83.48.94.53,1.79,1a.51.51,0,0,0,.53,0l19.13-10.86a.2.2,0,0,0,.11-.18.21.21,0,0,0-.1-.18l-1.8-1A.49.49,0,0,0,317.51,274.94Z" transform="translate(-50.56 -65.75)"/><path class="cls-24" d="M297.67,286.45c-.59.34-1.18.68-1.78,1a.27.27,0,0,0-.11.18.21.21,0,0,0,.11.19c.83.47.91.54,1.77,1a.49.49,0,0,0,.52,0c.6-.33,1.19-.67,1.78-1a.2.2,0,0,0,.11-.18.21.21,0,0,0-.1-.18c-.83-.48-.91-.55-1.78-1.05A.53.53,0,0,0,297.67,286.45Z" transform="translate(-50.56 -65.75)"/><path class="cls-25" d="M297.67,286.2l-1.78,1a.25.25,0,0,0-.11.18.2.2,0,0,0,.11.18c.83.48.94.53,1.79,1a.55.55,0,0,0,.53,0l1.77-1a.2.2,0,0,0,.11-.18.21.21,0,0,0-.1-.18l-1.8-1A.49.49,0,0,0,297.67,286.2Z" transform="translate(-50.56 -65.75)"/><path class="cls-24" d="M295.19,287.86l-1.78,1a.21.21,0,0,0-.1.18.17.17,0,0,0,.1.18c.83.48.91.55,1.77,1a.49.49,0,0,0,.52,0l1.78-1a.21.21,0,0,0,0-.36c-.83-.49-.91-.55-1.78-1.05A.49.49,0,0,0,295.19,287.86Z" transform="translate(-50.56 -65.75)"/><path class="cls-25" d="M295.19,287.6l-1.78,1a.2.2,0,0,0-.1.18.18.18,0,0,0,.1.18c.83.48.94.52,1.79,1a.53.53,0,0,0,.53,0l1.77-1a.2.2,0,0,0,.11-.18.21.21,0,0,0-.1-.18c-.83-.49-.93-.54-1.8-1A.53.53,0,0,0,295.19,287.6Z" transform="translate(-50.56 -65.75)"/><path class="cls-24" d="M292.71,289.27l-1.78,1a.21.21,0,0,0-.1.18.17.17,0,0,0,.1.18c.83.48.92.55,1.77,1.05a.53.53,0,0,0,.52,0l1.78-1a.21.21,0,0,0,.11-.18.23.23,0,0,0-.1-.19l-1.78-1A.49.49,0,0,0,292.71,289.27Z" transform="translate(-50.56 -65.75)"/><path class="cls-25" d="M292.71,289c-.59.34-1.18.68-1.78,1a.22.22,0,0,0-.1.18.19.19,0,0,0,.1.19c.83.48.94.52,1.79,1a.51.51,0,0,0,.53,0l1.77-1a.21.21,0,0,0,.11-.18.23.23,0,0,0-.1-.19l-1.8-1A.53.53,0,0,0,292.71,289Z" transform="translate(-50.56 -65.75)"/><path class="cls-24" d="M290.24,290.68l-1.79,1a.2.2,0,0,0-.1.18.2.2,0,0,0,.1.18l1.77,1a.51.51,0,0,0,.52,0l1.78-1a.19.19,0,0,0,.11-.18.22.22,0,0,0-.1-.18c-.83-.48-.91-.55-1.77-1.05A.51.51,0,0,0,290.24,290.68Z" transform="translate(-50.56 -65.75)"/><path class="cls-25" d="M290.23,290.42l-1.78,1a.21.21,0,0,0-.1.18.17.17,0,0,0,.1.18l1.8,1a.49.49,0,0,0,.52,0l1.77-1a.19.19,0,0,0,.11-.18.2.2,0,0,0-.1-.18l-1.79-1A.51.51,0,0,0,290.23,290.42Z" transform="translate(-50.56 -65.75)"/><path class="cls-20" d="M308.56,312.87A55.16,55.16,0,0,0,327,320c-1.78,5-2.38,9.31-1,13.67-8-2.74-18.68-5.89-18.94-9.46C306.83,319.57,307,316.51,308.56,312.87Z" transform="translate(-50.56 -65.75)"/><path class="cls-21" d="M326,321c-1.28,5.6-1.43,9.09-.66,12.64l-5.43-.67a21.88,21.88,0,0,1,.38-12.81A15,15,0,0,1,326,321Z" transform="translate(-50.56 -65.75)"/><path class="cls-20" d="M323.17,323.05a1.28,1.28,0,0,1-1.7.4c-.73-.29-1.15-.94-.93-1.45a1.29,1.29,0,0,1,1.7-.39C323,321.9,323.38,322.55,323.17,323.05Z" transform="translate(-50.56 -65.75)"/><path class="cls-20" d="M323,331.67c-.15.53-.89.78-1.65.57s-1.24-.81-1.08-1.34.89-.78,1.64-.57S323.16,331.14,323,331.67Z" transform="translate(-50.56 -65.75)"/><path class="cls-26" d="M299.59,284.91c-1.09-.41-1.41-2.19-1.8-3.23s-2.49-1.18-2.84-2.94,4.68,1.85,5.36,2.37,2.05,2.23,1.61,3C301.15,285.55,300.52,285,299.59,284.91Z" transform="translate(-50.56 -65.75)"/><path class="cls-27" d="M319.9,298.22c-8.22-.59-15.88-8.6-19.75-9.6-1.1-.28,1.06-4.89,3.49-3.9a38.59,38.59,0,0,0,15.92,3.55c1.86.08,7.4.89,7.13,3.9S325.71,298.64,319.9,298.22Z" transform="translate(-50.56 -65.75)"/><path class="cls-27" d="M302.34,288.87c1.15-.2,3.2-3.16,1.72-3.81-1.15-.82-5.63-3.93-6-4.09a12,12,0,0,0-1.62-.61,2.88,2.88,0,0,0-2.14,0c-.76.18-3,.63-3.63.84a21,21,0,0,0-3.7,1.71,1.18,1.18,0,0,0,.61.79c-.37.25-1.13.54-1,.83a1.35,1.35,0,0,0,1.41.62l-.47.2a1.5,1.5,0,0,0,1.57,1.07c.51,0,2.13-.34,2.64-.36,1.24,0,4.12-.15,1.2.18-1.27.12-3,.6-2.55,1.1.85.89,1.67.15,3,.15a13.87,13.87,0,0,1,4.71.88C300.45,289.59,300.77,289.13,302.34,288.87Z" transform="translate(-50.56 -65.75)"/><path class="cls-28" d="M344,362.1v-8.86l43.13-24.56v10.09a4.31,4.31,0,0,1-2.22,3.82L347.31,364A2.2,2.2,0,0,1,344,362.1Z" transform="translate(-50.56 -65.75)"/><path class="cls-25" d="M327,258.2c4,.42,7,2.26,6.85,4.11s-3.58,3-7.55,2.62-7-2.26-6.85-4.12S323.05,257.79,327,258.2Z" transform="translate(-50.56 -65.75)"/><path class="cls-9" d="M327.16,257.44c4,.15,7,1.79,6.85,3.66s-3.58,3.27-7.56,3.11-7-1.79-6.84-3.66S323.18,257.29,327.16,257.44Z" transform="translate(-50.56 -65.75)"/><path class="cls-29" d="M333.74,261.18c-1.16-.25-1.79.61-2.75,1.34s-3.48.22-4.83,1.61c-.69.71.71,1.06,2.17.8s2.55.35,3.72.1c.7-.15,3.07-.86,3.18-1.84C335.43,261.49,334.6,261.6,333.74,261.18Z" transform="translate(-50.56 -65.75)"/><path class="cls-29" d="M335.7,263.92c1.16-.17,3.14-3.29,1.66-4.05a42.47,42.47,0,0,0-6.4-3.07c-.87-.34-1.75-1-2.66-.75s-2.69.21-3.37.42c-1.18.51-2.75.58-3.21,1.12-.17.21.13.39.44.49-.42.19-1.19.26-1,.87a.75.75,0,0,0,.75.38l-1.16.41c-.42.76,1,1.2,1.56,1.22s2.29-.46,2.81-.46c1.26,0,2.59,0,.61.31-1.28.09-4.6.63-3.83,1.48s3.94.13,5.24.17a10.69,10.69,0,0,1,4.29.78C333.78,264.64,334.1,264.15,335.7,263.92Z" transform="translate(-50.56 -65.75)"/><path class="cls-27" d="M357.07,270.61c-8,.86-18.09-5-22.36-6.32-1.13-.08-1.1-5.45,1.52-4.89a64.72,64.72,0,0,0,17.27,1.35c1.79-.25,7.29-.42,8,2.63S362.69,270,357.07,270.61Z" transform="translate(-50.56 -65.75)"/><path class="cls-21" d="M350.26,258.75a23.93,23.93,0,0,0-9.38,7.25c-2.64,3.45-2.5,11.13-2.4,12.15,2.86,10.69.92,26.4-1.15,35.48-1.07,26.42,36.35,10.39,37.23-.36.16-9.54-.4-10.34.85-18,.6-3.67,6.82-30.87,1.62-38.5-1.1-1.54-6.27-5.57-10.8-3.8C360.29,255.32,351.28,258.47,350.26,258.75Z" transform="translate(-50.56 -65.75)"/><path class="cls-30" d="M346.87,265c8.75,4.25,4.05,16.49.6,21.17a39.08,39.08,0,0,1-18.7,15.15c-3.74,2-9.6-8.91-6.35-13.69,2.4-5.24,8.88-11.41,9.84-13.67C333.85,270.15,340.81,262,346.87,265Z" transform="translate(-50.56 -65.75)"/><path class="cls-31" d="M320.49,287.27c-3.87,3.92-2.92,15.69,3.75,16,4.22.23,9.32-1.73,8.43-3.77-3.59,0-11.61-2.22-9.31-13.81C322.29,285.39,321.5,286.48,320.49,287.27Z" transform="translate(-50.56 -65.75)"/><path class="cls-23" d="M354.59,290.94l8.62,7.22L344.1,353.28l-8.42-6.56a4.34,4.34,0,0,1-1.38-5.1Z" transform="translate(-50.56 -65.75)"/><path class="cls-32" d="M363.2,298.2c9.6-10.26,23.46-18.51,40.21-25l-16.26,56.68L344,353.22Z" transform="translate(-50.56 -65.75)"/><path class="cls-22" d="M403.38,273.3l-9.31-4.87a3.91,3.91,0,0,0-4.57.64c-7.65,7.28-19.74,14.76-34,21.09a2.2,2.2,0,0,0-.13,4l7.8,4.08C380.69,291.76,394.62,283.71,403.38,273.3Z" transform="translate(-50.56 -65.75)"/><path class="cls-33" d="M271.21,220.08a.17.17,0,0,1-.16-.09.18.18,0,0,1,.07-.25L285,212a.18.18,0,1,1,.18.32l-13.83,7.77Z" transform="translate(-50.56 -65.75)"/><path class="cls-33" d="M271.21,221.26a.17.17,0,0,1-.16-.09.18.18,0,0,1,.07-.25L285,213.15a.18.18,0,1,1,.18.32l-13.83,7.77Z" transform="translate(-50.56 -65.75)"/><path class="cls-33" d="M271.21,222.44a.17.17,0,0,1-.16-.09.18.18,0,0,1,.07-.25L285,214.33a.18.18,0,1,1,.18.32l-13.83,7.77Z" transform="translate(-50.56 -65.75)"/><path class="cls-33" d="M271.21,223.62a.17.17,0,0,1-.16-.09.18.18,0,0,1,.07-.25L285,215.51a.19.19,0,0,1,.25.07.18.18,0,0,1-.07.25L271.3,223.6A.15.15,0,0,1,271.21,223.62Z" transform="translate(-50.56 -65.75)"/><path class="cls-33" d="M271.21,224.8a.17.17,0,0,1-.16-.09.18.18,0,0,1,.07-.25L285,216.69a.19.19,0,0,1,.25.07.18.18,0,0,1-.07.25l-13.83,7.77A.15.15,0,0,1,271.21,224.8Z" transform="translate(-50.56 -65.75)"/><path class="cls-33" d="M271.21,226a.18.18,0,0,1-.16-.1.18.18,0,0,1,.07-.25L285,217.88a.18.18,0,0,1,.25.07.18.18,0,0,1-.07.25L271.3,226A.16.16,0,0,1,271.21,226Z" transform="translate(-50.56 -65.75)"/><path class="cls-33" d="M271.21,227.17a.18.18,0,0,1-.16-.1.18.18,0,0,1,.07-.25L285,219.06a.18.18,0,1,1,.18.32l-13.83,7.76A.16.16,0,0,1,271.21,227.17Z" transform="translate(-50.56 -65.75)"/><path class="cls-33" d="M271.21,228.35a.18.18,0,0,1-.16-.1.18.18,0,0,1,.07-.25L285,220.24a.18.18,0,1,1,.18.32l-13.83,7.76A.16.16,0,0,1,271.21,228.35Z" transform="translate(-50.56 -65.75)"/><path class="cls-33" d="M277.38,226.06a.18.18,0,0,1-.09-.34l7.66-4.3a.18.18,0,0,1,.18.32l-7.66,4.3Z" transform="translate(-50.56 -65.75)"/><path class="cls-33" d="M271.32,241.55a.2.2,0,0,1-.16-.1.18.18,0,0,1,.07-.25l13.83-7.76a.18.18,0,0,1,.25.07.18.18,0,0,1-.07.25l-13.83,7.76A.16.16,0,0,1,271.32,241.55Z" transform="translate(-50.56 -65.75)"/><path class="cls-33" d="M271.32,242.73a.2.2,0,0,1-.16-.1.18.18,0,0,1,.07-.25l13.83-7.76a.18.18,0,1,1,.18.32l-13.83,7.76A.16.16,0,0,1,271.32,242.73Z" transform="translate(-50.56 -65.75)"/><path class="cls-33" d="M277.5,240.44a.17.17,0,0,1-.16-.09.18.18,0,0,1,.07-.25l7.65-4.3a.18.18,0,1,1,.18.32l-7.65,4.3Z" transform="translate(-50.56 -65.75)"/><path class="cls-33" d="M271.32,205.48a.19.19,0,0,1-.16-.09.18.18,0,0,1,.07-.25l13.83-7.77a.18.18,0,1,1,.18.32l-13.83,7.77A.15.15,0,0,1,271.32,205.48Z" transform="translate(-50.56 -65.75)"/><path class="cls-33" d="M271.32,206.66a.19.19,0,0,1-.16-.09.18.18,0,0,1,.07-.25l13.83-7.77a.19.19,0,0,1,.25.07.18.18,0,0,1-.07.25l-13.83,7.77A.15.15,0,0,1,271.32,206.66Z" transform="translate(-50.56 -65.75)"/><path class="cls-33" d="M277.5,204.38a.18.18,0,0,1-.16-.1.18.18,0,0,1,.07-.25l7.65-4.3a.19.19,0,0,1,.25.08.18.18,0,0,1-.07.25l-7.65,4.29A.16.16,0,0,1,277.5,204.38Z" transform="translate(-50.56 -65.75)"/><path class="cls-16" d="M317.08,231.51l6.52,3.24c-24.26,13.81-36.27,20.09-60.13,33.67L258.34,265C270.55,257.93,289.91,247.26,317.08,231.51Z" transform="translate(-50.56 -65.75)"/><path class="cls-8" d="M292.62,245C284,245,277,249.46,277,254.94s7,9.94,15.62,9.94,15.62-4.45,15.62-9.94S301.24,245,292.62,245Z" transform="translate(-50.56 -65.75)"/><path class="cls-34" d="M292.58,248.25c-6.19.17-11.13,3.42-11,7.26s5.2,6.83,11.39,6.66,11.13-3.41,11-7.25S298.77,248.09,292.58,248.25Z" transform="translate(-50.56 -65.75)"/><path class="cls-9" d="M292.62,243.75c-8.63,0-15.62,4.45-15.62,9.94s7,9.93,15.62,9.93,15.62-4.45,15.62-9.93S301.24,243.75,292.62,243.75Z" transform="translate(-50.56 -65.75)"/><path class="cls-25" d="M292.62,246.87c-4.8,0-8.68,2.47-8.68,5.52s3.88,5.52,8.68,5.52,8.67-2.47,8.67-5.52S297.41,246.87,292.62,246.87Z" transform="translate(-50.56 -65.75)"/><path class="cls-11" d="M284.06,244.32l2,1.14,8-6.24a.65.65,0,0,1,.53,0l1.25.48,2.82,11.46a.26.26,0,0,1-.13.23l-9.38,5.36-2.27-1.34Z" transform="translate(-50.56 -65.75)"/><polygon class="cls-9" points="238.61 191.01 235.77 179.56 245.97 173.72 248.81 185.16 238.61 191.01"/><polygon class="cls-8" points="245.81 173.81 246.67 176.54 247.92 181.57 237.71 187.35 235.77 179.56 245.81 173.81"/><path class="cls-8" d="M320.05,184l.51,39a2.78,2.78,0,0,1-1.41,2.45L262.4,260l-2.66-1.53a1.1,1.1,0,0,1-.51-1h0V217a2.17,2.17,0,0,1,0-.26v-7.85a2.73,2.73,0,0,1,1.41-2.42l57.23-32.55a1.36,1.36,0,0,1,1.38,0l2.54,1.47-1.23,7A4.44,4.44,0,0,1,320.05,184Z" transform="translate(-50.56 -65.75)"/><path class="cls-25" d="M261.74,258.7V210.37a2.7,2.7,0,0,1,1.41-2.41l57.23-32.56a1.4,1.4,0,0,1,2.09,1.2l-.1,48.19a2.75,2.75,0,0,1-1.41,2.46l-57.31,32.67a1.38,1.38,0,0,1-1.4,0A1.24,1.24,0,0,1,261.74,258.7Z" transform="translate(-50.56 -65.75)"/><path class="cls-9" d="M261.74,210.24a2.76,2.76,0,0,1,1.41-2.29l57.23-32.55a1.54,1.54,0,0,1,1.39,0,1.06,1.06,0,0,1,.49.47Z" transform="translate(-50.56 -65.75)"/><path class="cls-35" d="M260.62,206.49a2.67,2.67,0,0,0-1.39,2.09l2.52,1.62a2.72,2.72,0,0,1,1.4-2.25l2.33-1.32,54.9-31.23a1.36,1.36,0,0,1,1.39,0l-2.54-1.47a1.36,1.36,0,0,0-1.38,0l-29.16,16.61Z" transform="translate(-50.56 -65.75)"/><polygon class="cls-9" points="212.59 190.72 212.59 147.69 270.52 114.75 270.54 157.87 212.59 190.72"/><polygon class="cls-36" points="212.59 189.68 212.59 147.69 269.74 115.2 269.74 157.28 212.59 189.68"/><polygon class="cls-9" points="213.61 188.45 213.61 169.1 240.41 153.94 240.41 173.29 213.61 188.45"/><polygon class="cls-9" points="213.61 167.24 213.61 147.88 240.41 132.72 240.41 152.07 213.61 167.24"/><polygon class="cls-9" points="241.93 172.5 241.93 153.14 268.73 137.98 268.73 157.34 241.93 172.5"/><polygon class="cls-9" points="241.93 151.28 241.93 131.93 268.73 116.77 268.73 136.12 241.93 151.28"/><path class="cls-37" d="M289.73,208.85l1.24-1.42v-9l-1.24.7v9.68Zm0,9.68V215l1.24-4.19v7Zm-5.13-16.46-14.13,27.35,2.66-1.5,16.6-19.07v-9.68l-5.13,2.9Zm5.13,13v3.5l-1.24.7Z" transform="translate(-50.56 -65.75)"/><path class="cls-37" d="M309.17,188.25l10.12.23v1.28l-12.05,2,12.05,2v.86l-22,.32,11.92-6.74Zm-12.74,7.2,22.86,3.42v.85l-15.52,2.59-6.39,12-4.88-9.76v-6.83Z" transform="translate(-50.56 -65.75)"/><path class="cls-37" d="M269.06,232.08l-4.89,18.38v3.74l5.06-2.86L274,229.28l-4.94,2.8Zm5.5-3.11,1,18.77,5.37-3-1.29-3.86,11.3-9V230.1l-9.45,2.06-3.13-5.36Z" transform="translate(-50.56 -65.75)"/><polygon class="cls-37" points="226.73 140.46 213.61 158.58 213.61 155.98 219 144.83 226.73 140.46"/><polygon class="cls-37" points="255.78 145.31 268.73 147.13 268.73 148.33 259.61 148.51 268.73 150.66 268.73 151.36 249.51 149.05 244.18 152.07 264.96 159.47 262.43 160.9 241.93 156.92 241.93 153.14 255.78 145.31"/><path class="cls-16" d="M254.42,267.54l6.51,3.24c-24.26,13.81-36.26,20.08-60.13,33.67L195.67,301C207.89,294,227.24,283.28,254.42,267.54Z" transform="translate(-50.56 -65.75)"/><path class="cls-8" d="M230,281c-8.63,0-15.62,4.45-15.62,9.94s7,9.94,15.62,9.94,15.62-4.45,15.62-9.94S238.58,281,230,281Z" transform="translate(-50.56 -65.75)"/><path class="cls-34" d="M229.91,284.28c-6.19.16-11.12,3.42-11,7.26s5.2,6.83,11.39,6.66,11.13-3.41,11-7.26S236.1,284.12,229.91,284.28Z" transform="translate(-50.56 -65.75)"/><path class="cls-9" d="M230,279.77c-8.63,0-15.62,4.46-15.62,9.94s7,9.94,15.62,9.94,15.62-4.45,15.62-9.94S238.58,279.77,230,279.77Z" transform="translate(-50.56 -65.75)"/><path class="cls-25" d="M230,282.9c-4.79,0-8.68,2.47-8.68,5.52s3.89,5.52,8.68,5.52,8.68-2.47,8.68-5.52S234.74,282.9,230,282.9Z" transform="translate(-50.56 -65.75)"/><path class="cls-11" d="M221.4,280.35l2,1.14,8-6.24a.62.62,0,0,1,.53,0l1.25.48L236,287.2a.25.25,0,0,1-.13.22l-9.37,5.37-2.27-1.35Z" transform="translate(-50.56 -65.75)"/><polygon class="cls-9" points="175.95 227.03 173.1 215.59 183.3 209.74 186.15 221.19 175.95 227.03"/><polygon class="cls-8" points="183.15 209.83 184 212.57 185.25 217.6 175.04 223.38 173.1 215.59 183.15 209.83"/><path class="cls-8" d="M257.39,220l.51,39a2.8,2.8,0,0,1-1.41,2.45L199.73,296l-2.66-1.53a1.09,1.09,0,0,1-.5-1h0V253.05a2.44,2.44,0,0,1,0-.27v-7.85a2.71,2.71,0,0,1,1.41-2.41L255.18,210a1.38,1.38,0,0,1,1.39,0l2.53,1.46-1.22,7A4.85,4.85,0,0,1,257.39,220Z" transform="translate(-50.56 -65.75)"/><path class="cls-25" d="M199.08,294.73V246.4a2.71,2.71,0,0,1,1.41-2.42l57.23-32.55a1.36,1.36,0,0,1,1.38,0,1.39,1.39,0,0,1,.7,1.2l-.1,48.19a2.75,2.75,0,0,1-1.41,2.46L201,296a1.36,1.36,0,0,1-1.39,0A1.22,1.22,0,0,1,199.08,294.73Z" transform="translate(-50.56 -65.75)"/><path class="cls-9" d="M199.08,246.27a2.72,2.72,0,0,1,1.41-2.29l57.23-32.55a1.55,1.55,0,0,1,1.38,0,1.16,1.16,0,0,1,.5.48Z" transform="translate(-50.56 -65.75)"/><path class="cls-38" d="M198,242.52a2.72,2.72,0,0,0-1.39,2.09l2.52,1.62a2.69,2.69,0,0,1,1.41-2.25l2.33-1.32,54.9-31.23a1.36,1.36,0,0,1,1.38,0L256.57,210a1.38,1.38,0,0,0-1.39,0L226,226.58Z" transform="translate(-50.56 -65.75)"/><polygon class="cls-9" points="149.92 226.75 149.92 183.72 207.86 150.78 207.87 193.9 149.92 226.75"/><polygon class="cls-36" points="149.92 225.7 149.92 183.72 207.07 151.23 207.07 193.3 149.92 225.7"/><polygon class="cls-9" points="150.94 224.48 150.94 205.12 177.74 189.97 177.74 209.32 150.94 224.48"/><polygon class="cls-9" points="150.94 203.26 150.94 183.91 177.74 168.75 177.74 188.1 150.94 203.26"/><polygon class="cls-9" points="179.26 208.53 179.26 189.17 206.06 174.01 206.06 193.36 179.26 208.53"/><polygon class="cls-9" points="179.26 187.31 179.26 167.96 206.06 152.8 206.06 172.15 179.26 187.31"/><path class="cls-37" d="M227.06,244.88l1.24-1.42v-9l-1.24.7v9.68Zm0,9.67v-3.49l1.24-4.19v7Zm-5.12-16.45L207.8,265.45l2.66-1.51,16.6-19.06V235.2l-5.12,2.9Zm5.12,13v3.49l-1.24.71Z" transform="translate(-50.56 -65.75)"/><path class="cls-37" d="M246.5,224.28l10.13.23v1.28l-12.06,2,12.06,2v.87l-22,.32,11.92-6.74Zm-12.74,7.2,22.87,3.42v.85l-15.53,2.59-6.39,12-4.88-9.76V233.7Z" transform="translate(-50.56 -65.75)"/><path class="cls-37" d="M206.39,268.11l-4.89,18.38v3.74l5.06-2.86,4.78-22.06-5,2.8ZM211.9,265l1,18.77,5.37-3L217,276.87l11.29-9v-1.75l-9.45,2.05-3.13-5.35Z" transform="translate(-50.56 -65.75)"/><polygon class="cls-37" points="164.06 176.48 150.94 194.6 150.94 192.01 156.33 180.86 164.06 176.48"/><polygon class="cls-37" points="193.12 181.34 206.06 183.16 206.06 184.36 196.94 184.54 206.06 186.69 206.06 187.39 186.84 185.08 181.51 188.1 202.29 195.5 199.76 196.93 179.26 192.95 179.26 189.17 193.12 181.34"/><path class="cls-21" d="M336.26,297a54.71,54.71,0,0,1,5-17.73c-4.88.29-8.61-.3-11.2-2.62-2.42,7.58-6.09,17.63-3.46,18.76C330.05,296.84,332.5,297.51,336.26,297Z" transform="translate(-50.56 -65.75)"/><path class="cls-30" d="M339.91,279.87c-5.09-.31-7.89-1.05-10.21-2.62l-2.59,4.87A15.14,15.14,0,0,0,337.3,285,18.4,18.4,0,0,0,339.91,279.87Z" transform="translate(-50.56 -65.75)"/><path class="cls-21" d="M336.69,281.83a1.86,1.86,0,0,0-1.28,1.37c-.19.7.08,1.23.59,1.18a1.84,1.84,0,0,0,1.28-1.37C337.47,282.3,337.21,281.78,336.69,281.83Z" transform="translate(-50.56 -65.75)"/><path class="cls-21" d="M329.89,279.8a1.89,1.89,0,0,0-1.39,1.29c-.27.7-.08,1.28.42,1.27s1.12-.57,1.39-1.28S330.39,279.8,329.89,279.8Z" transform="translate(-50.56 -65.75)"/><path class="cls-39" d="M342.41,267.43c2.35.81,3.29,3.79,2.11,6.66s-4,4.54-6.39,3.74-3.29-3.79-2.11-6.67S340.06,266.62,342.41,267.43Z" transform="translate(-50.56 -65.75)"/><path class="cls-40" d="M341.6,269.39c1.46.51,2,2.36,1.32,4.15s-2.52,2.82-4,2.32-2.05-2.36-1.31-4.14S340.14,268.89,341.6,269.39Z" transform="translate(-50.56 -65.75)"/><path class="cls-20" d="M366.37,260.38c-5.32-7.36-13.44,2-15.57,2.55,1.08-1.32-1-3.65.07-5,2.86-.16,14.05-8.7,16.53-2.94C368.05,257.89,367.85,259.24,366.37,260.38Z" transform="translate(-50.56 -65.75)"/><path class="cls-41" d="M345,232.27c.16,1.65-.92,3.83-1.17,5.46a3.08,3.08,0,0,0,.24,2.45,6.6,6.6,0,0,1,.4,4.45c-.34,1.86.36,3.76,1,5.54.51,1.4.84,3.06,2.19,3.84,3.35,1.93,6.88.42,10.05-.93s2.21-7,3-9.73c1.48-4.93-.3-11.57-5.74-13.31-2.43-.77-6.37-1-8.74.12C345.43,230.54,345,232.27,345,232.27Z" transform="translate(-50.56 -65.75)"/><path class="cls-26" d="M349.09,248s0,8.94.76,11.67c.41.83,4.72,2.66,7.3,2.54,4.11-.19,8.7-2.73,7.09-6-.88-1.78-2.46-8.39-1.7-15.89C362.77,237.91,349.09,248,349.09,248Z" transform="translate(-50.56 -65.75)"/><path class="cls-42" d="M361.16,226.56c-5.21-3.05-15.83-1.88-18.8,2.08-1.69,2.26,1.27,5.59,1.27,5.59,1.18,1.32,2.74.27,3.66,4.18.24,1,1.39,2.09,1.65,3,4.93,16.4,13.46,8.75,13.71,8,2.06-5.95,3-4.77,3.9-8.31C367.9,235.75,368.48,230.82,361.16,226.56Z" transform="translate(-50.56 -65.75)"/><path class="cls-41" d="M351.58,245.47c-.57,1.82-.86,3.5-1.66,3.26s-1.75-1.88-1.19-3.71.85-3.55,1.68-3.63C352,241.26,352.15,243.64,351.58,245.47Z" transform="translate(-50.56 -65.75)"/><path class="cls-30" d="M347.72,257.73c16.14,4.91,18.92-1.3,19.31-3.46.75,1.53.59,2.87,1.34,4.4-1.05,2.66-3.1,8.38-20.73,3.43C348,260,347.11,259.47,347.72,257.73Z" transform="translate(-50.56 -65.75)"/><ellipse class="cls-43" cx="109.78" cy="97.97" rx="50.68" ry="44.9"/><ellipse class="cls-44" cx="109.78" cy="97.97" rx="47.42" ry="42.02"/><path class="cls-3" d="M171.93,126.41a51.69,51.69,0,0,1,25.17,6.41c.87.8,1.7,1.64,2.49,2.5-.65,0-1.31,0-2,0-26.19,0-47.42,18.81-47.42,42,0,12.31,6,23.38,15.5,31.06-1.76.17-3.54.25-5.35.25-.83,0-1.66,0-2.48-.05-19.32-5.31-33.37-21.27-33.37-40.14C124.5,145.23,145.74,126.41,171.93,126.41Z" transform="translate(-50.56 -65.75)"/><path class="cls-45" d="M152.6,119.2c-14.14,1-22.36,3.77-30.42,8.14H105.33V152a17.7,17.7,0,0,0,0,3.85v1.4h.2v0h0v.1h0v0h0v0h0v.11h0v0l0,.19h0l0,.21c3.9,17.25,31.25,29.61,61.06,27.59,25.14-1.7,44-13.09,47-27h0v0h0v0h0v0h0v-.07h0v-.1l0-.09V158h0v-.09h0v0h0l0-.11v-.06h0v-.06h0l0-.12h0v-.1h0l0-.17h0v0a18.8,18.8,0,0,0,0-4.74V127.34h-17.9C184.65,121.33,166.74,118.24,152.6,119.2Z" transform="translate(-50.56 -65.75)"/><path class="cls-6" d="M208.38,127.34v41.45a42.94,42.94,0,0,1-14.76,10.44V126.14c.84.39,1.66.79,2.45,1.2Zm-28.64,56.43c2.3-.51,4.52-1.1,6.64-1.78v-41.6h-6.64Z" transform="translate(-50.56 -65.75)"/><path class="cls-46" d="M152.6,99.75c-29.81,2-50.82,17.66-46.91,34.91s31.25,29.61,61.06,27.59,50.81-17.65,46.91-34.91S182.41,97.73,152.6,99.75Z" transform="translate(-50.56 -65.75)"/><path class="cls-3" d="M154.89,110.09c-20.17,1.37-34.38,12-31.74,23.62s21.14,20,41.31,18.67,34.38-11.95,31.73-23.62S175.05,108.73,154.89,110.09Z" transform="translate(-50.56 -65.75)"/><path class="cls-6" d="M129.22,156.84v23.35c-8.86-3.53-15.94-8.53-20.06-14.47V142.37C113.28,148.31,120.36,153.31,129.22,156.84Z" transform="translate(-50.56 -65.75)"/><path class="cls-47" d="M154.89,113.76c-17.47,1.18-30.46,9.27-31.91,19,0,.32.1.64.17,1,2.64,11.68,21.14,20,41.31,18.67,17.46-1.19,30.45-9.28,31.91-19-.05-.31-.1-.63-.18-1C193.55,120.75,175.05,112.39,154.89,113.76Z" transform="translate(-50.56 -65.75)"/><path class="cls-48" d="M139.67,193.8c1.84,3,4.85,4.57,6.73,3.43s1.92-4.53.08-7.56-4.85-4.56-6.73-3.42S137.83,190.77,139.67,193.8Z" transform="translate(-50.56 -65.75)"/><path class="cls-49" d="M140.27,193.44c1.51,2.49,4,3.75,5.54,2.81s1.58-3.72.07-6.21-4-3.76-5.54-2.82S138.76,190.94,140.27,193.44Z" transform="translate(-50.56 -65.75)"/><path class="cls-50" d="M98,311c-8.53,5.12-14.2,10.89-12,20.66s22,20.8,42.91,19.38c9.61-.65,17.92-3.32,23.83-7.18Z" transform="translate(-50.56 -65.75)"/><path class="cls-6" d="M89.85,244v80.56c.34,20,34.45,22,52.46,16.95l.18-78.11c-.77.08-11.61,1.84-12.4,1.89-17.69,1.2-34-5.55-38.17-15.38a16.35,16.35,0,0,1-1.86-4.29c-.17-.75,0-.15,0-.23h0c-.06-.3-.1-.6-.13-.89h0c0-.07,0-.15,0-.22h0c0-.07,0-.13,0-.2v0h0V244Z" transform="translate(-50.56 -65.75)"/><path class="cls-51" d="M85.72,231.84v16.34c.63,3.89,3.15,8.74,5.71,10.9,8.2,6.93,22.6,11.08,37.89,10,.91-.06,10.25-1.83,11.13-1.93v80.4c-19.13,4.07-34.83,2-45.3-5-4.7-3.18-8.74-7.6-9.43-13.81,0,5-.12,10.13,0,15.17,3.35,26.14,50.18,25.86,67.19,14.63V246.6a1.6,1.6,0,0,0-.36.08c-5.9,3.79-14.11,6.39-23.59,7C108,255.14,88.79,246.45,86,234.33c0-.12-.05-.23-.07-.35h0a13.31,13.31,0,0,1-.2-1.37h0l0-.34h0c0-.1,0-.2,0-.31v0h0v-.08Z" transform="translate(-50.56 -65.75)"/><path class="cls-52" d="M98,215.3c-8.81,4.64-13.67,11.62-12,19,5.21,23,51.81,23.9,66.86,12.27Z" transform="translate(-50.56 -65.75)"/><polygon class="cls-53" points="102.36 292.78 102.33 180.85 111.24 175.76 111.24 287.68 102.36 292.78"/><polygon class="cls-47" points="47.47 149.55 102.33 180.84 111.24 175.76 56.35 144.44 47.47 149.55"/><path class="cls-12" d="M96,353.26c-.77.24-1.82-.56-2.34-1.78s-.31-2.4.46-2.64,1.82.55,2.34,1.78S96.74,353,96,353.26Z" transform="translate(-50.56 -65.75)"/><path class="cls-54" d="M96.54,352.64c-.61.19-1.44-.44-1.85-1.41s-.25-1.91.36-2.1a.58.58,0,0,1,.19,0,3.54,3.54,0,0,1,1.18,1.51,2.79,2.79,0,0,1,.17,2Z" transform="translate(-50.56 -65.75)"/><polygon class="cls-48" points="190.92 100.25 190.92 50.27 184.99 46.92 185.01 96.88 190.92 100.25"/><polygon class="cls-6" points="226.94 29.77 190.92 50.27 190.92 100.25 226.99 79.7 226.94 29.77"/><polygon class="cls-55" points="226.94 29.77 190.92 50.27 184.99 46.92 220.79 26.36 226.94 29.77"/><path class="cls-45" d="M268.24,136c-4.7,7.76-12.42,11.68-17.23,8.76s-4.91-11.57-.21-19.33,12.41-11.67,17.23-8.76S272.94,128.29,268.24,136Z" transform="translate(-50.56 -65.75)"/><path class="cls-47" d="M266.7,135.27c-4.31,7.12-11.16,11-16,9.35-4.53-3.09-4.53-11.55.08-19.15,4.31-7.11,11.16-11,16-9.34C271.31,119.22,271.3,127.68,266.7,135.27Z" transform="translate(-50.56 -65.75)"/><path class="cls-47" d="M262.82,132.87c-2.29,3.78-6.06,5.7-8.41,4.27s-2.4-5.65-.1-9.43,6.06-5.7,8.41-4.28S265.11,129.08,262.82,132.87Z" transform="translate(-50.56 -65.75)"/><path class="cls-56" d="M263.77,133.34c-2.29,3.78-6.06,5.7-8.41,4.27s-2.39-5.64-.1-9.43,6.06-5.7,8.41-4.28S266.07,129.55,263.77,133.34Z" transform="translate(-50.56 -65.75)"/><path class="cls-50" d="M307.77,151.9l-45.45-25.6a1.64,1.64,0,0,0-.22-.14c.11,0,.28.08,0,0l-.32-.13c-1.67-.51-4.08,1.22-5.38,3.88-1.1,2.26-1,4.46,0,5.38a2,2,0,0,0,.48.33l45.53,25.64Z" transform="translate(-50.56 -65.75)"/><path class="cls-57" d="M298.53,162.47A10.52,10.52,0,1,0,288,152,10.54,10.54,0,0,0,298.53,162.47Z" transform="translate(-50.56 -65.75)"/><path class="cls-50" d="M337.24,110l-38.43,35.28a1.56,1.56,0,0,0-.2.16c.06-.09.16-.24,0,0a2.75,2.75,0,0,0-.22.26c-1,1.43-.1,4.26,2,6.31,1.81,1.75,3.92,2.38,5.13,1.65a2.22,2.22,0,0,0,.45-.36l38.49-35.34Z" transform="translate(-50.56 -65.75)"/><path class="cls-57" d="M329.67,133.53A10.53,10.53,0,1,0,319.15,123,10.54,10.54,0,0,0,329.67,133.53Z" transform="translate(-50.56 -65.75)"/><path class="cls-58" d="M327.19,86.15a22.59,22.59,0,0,1,1.37-6.52l60.6,34.5.94.39c2.08.86,1.94,4.24.17,4.84a7.38,7.38,0,0,1-5.84-.69Z" transform="translate(-50.56 -65.75)"/><path class="cls-47" d="M326.49,86A25.86,25.86,0,0,1,328,79l60.79,35.31c3.53.77,2.78,4.3.95,5a7.24,7.24,0,0,1-5.91-.61Z" transform="translate(-50.56 -65.75)"/><path class="cls-59" d="M361.47,145.07l-64.76-37.42a6.09,6.09,0,0,1-.81-.4c.29.29.73.7-.12-.07a7.19,7.19,0,0,1-.95-.72C290.3,102.32,291.27,92,297,83.35c4.86-7.34,11.6-11.07,16.29-9.47a6.66,6.66,0,0,1,1.82.88l65,37.56Z" transform="translate(-50.56 -65.75)"/><path class="cls-60" d="M378.78,136c-5.72,8.63-14,12.27-18.55,8.14s-3.55-14.48,2.17-23.1,14-12.27,18.54-8.14S384.5,127.42,378.78,136Z" transform="translate(-50.56 -65.75)"/><path class="cls-48" d="M377.24,134.64c-4.64,7-11.39,10-15.06,6.61s-2.89-11.76,1.75-18.77,11.39-10,15.07-6.6S381.88,127.64,377.24,134.64Z" transform="translate(-50.56 -65.75)"/><path class="cls-49" d="M374,132.67c-3.69,5.56-8.69,8.57-12.44,7.9-2.93-3.72-2-11.52,2.38-18.09,3.69-5.56,8.7-8.57,12.45-7.89C379.31,118.3,378.34,126.1,374,132.67Z" transform="translate(-50.56 -65.75)"/><path class="cls-61" d="M373,131.67c-2.86,4.32-6.72,6.72-9.69,6.38a23.07,23.07,0,0,0,7.37-7.3,26.24,26.24,0,0,0,4.55-13.16C377.19,120.71,376.33,126.64,373,131.67Z" transform="translate(-50.56 -65.75)"/><path class="cls-9" d="M304.14,94.14a31.83,31.83,0,0,1,3.8-7.88c4.86-7.33,11.25-11,15.94-9.36a6.58,6.58,0,0,1,1.83.88c21,12.11,42.26,24.1,63.22,36.21a4.46,4.46,0,0,1,1.89,1c-.22,0-1.1-.45-1.49-.55-4.66-1.22-11.28,2.44-16,9.55a32.88,32.88,0,0,0-2.85,5.3,7.17,7.17,0,0,1-10.17,3.44l-52.91-30.17A7.13,7.13,0,0,1,304.14,94.14Z" transform="translate(-50.56 -65.75)"/><path class="cls-62" d="M291.39,87.21c2.51-7.89,11.47-20.27,21-17a6.18,6.18,0,0,1,1.83.88L388.92,114c-8.48-1.66-16.47,8.63-19.25,15.23a6.58,6.58,0,0,1-4.34,3.73,6.94,6.94,0,0,1-5.86-.56l-64.8-36.77A7.1,7.1,0,0,1,291.39,87.21Z" transform="translate(-50.56 -65.75)"/><path class="cls-63" d="M74.83,326.45a.55.55,0,0,1-.47-.27A177.64,177.64,0,0,1,182.23,65.77a.54.54,0,0,1,.67.39.54.54,0,0,1-.38.67A176.55,176.55,0,0,0,75.31,325.63a.55.55,0,0,1-.21.75A.52.52,0,0,1,74.83,326.45Z" transform="translate(-50.56 -65.75)"/><polygon class="cls-64" points="15.71 254.52 24.96 249.82 25.67 262.69 15.71 254.52"/></svg>